<svg width="45" height="64" viewBox="0 0 45 64" fill="none" xmlns="http://www.w3.org/2000/svg">
<path d="M16.3983 6.69727C16.663 6.726 17.0931 6.37916 17.3155 6.26385C17.3972 6.21605 17.4686 6.15251 17.5256 6.07689C17.5826 6.00128 17.624 5.9151 17.6474 5.82336C17.6708 5.73163 17.6757 5.63616 17.6619 5.54249C17.6481 5.44883 17.6159 5.35883 17.567 5.27773C17.5182 5.19663 17.4537 5.12604 17.3774 5.07006C17.301 5.01407 17.2143 4.9738 17.1223 4.95159C17.0302 4.92938 16.9347 4.92567 16.8412 4.94067C16.7478 4.95568 16.6582 4.98909 16.5777 5.03899L16.0287 5.36971C15.4088 5.72708 15.6952 6.71417 16.3983 6.69727Z" fill="white"/>
<path d="M27.4255 6.2638C27.6504 6.37924 28.0755 6.72504 28.3428 6.69709C29.0457 6.71399 29.3324 5.72703 28.7122 5.36966L28.1634 5.03894C27.3505 4.56756 26.6284 5.76512 27.4255 6.2638Z" fill="white"/>
<path d="M4.28459 49.0198C3.10549 53.9384 0.237424 56.3648 0.000173416 62.3365C-0.0177666 63.2753 1.36205 63.3434 1.42874 62.3984C1.57083 59.1376 2.76112 56.2891 3.73521 54.4735C4.59397 52.8572 5.24531 51.139 5.67377 49.3597C7.59686 41.4987 11.5628 39.8818 13.8418 39.637C18.989 42.5897 25.7523 42.5895 30.8994 39.637C33.1763 39.8814 37.1439 41.4974 39.0675 49.3595C39.4958 51.139 40.1471 52.8572 41.006 54.4735C41.9801 56.2892 43.1709 59.1379 43.3123 62.3984C43.3205 62.5879 43.4036 62.7663 43.5434 62.8945C43.6832 63.0226 43.8681 63.09 44.0576 63.0818C44.2471 63.0736 44.4255 62.9905 44.5537 62.8507C44.6818 62.7109 44.7492 62.526 44.741 62.3365C44.5028 56.3624 41.6369 53.9405 40.4565 49.0198C39.1155 43.8092 36.9257 40.0128 32.5899 38.5353C35.4622 36.3689 37.2569 33.2069 37.421 29.6362C39.7525 28.4488 40.5176 25.2449 40.265 22.8303C42.6771 22.2394 41.812 19.0898 41.1062 17.8744C40.8513 17.4176 40.6847 16.917 40.6149 16.3985C40.3548 14.4089 39.8333 12.4622 39.0639 10.609C39.9534 9.0014 41.5373 5.20436 38.7925 2.1868C35.8496 -1.04955 32.2697 -0.199093 29.9973 1.56709C24.7283 -0.424903 20.2548 -0.428673 14.9746 1.56709C12.4967 -0.449603 8.72162 -0.758484 6.17947 2.18693C3.43478 5.20436 5.0187 9.0014 5.90816 10.609C5.13875 12.4622 4.61724 14.4088 4.35713 16.3984C4.28736 16.9169 4.12071 17.4176 3.86586 17.8744C3.25668 18.9053 2.35305 21.8562 4.30214 22.6888C3.93151 25.2489 4.74414 28.7599 7.33803 29.925C7.58308 33.3853 9.35914 36.4277 12.1513 38.5353C7.81409 40.0134 5.62684 43.8081 4.28459 49.0198ZM34.9536 17.3872C35.5776 17.5276 36.3219 17.7067 37.1255 17.9242C37.4377 18.8319 37.5633 19.7933 37.4949 20.7507C36.7574 20.5427 35.9219 20.3296 34.9916 20.1233C35.1446 19.2165 35.1317 18.2894 34.9536 17.3872ZM38.6433 25.6466C38.4308 26.6012 38.0074 27.3605 37.3823 27.9169C37.1525 26.0112 37.1164 24.0871 37.2746 22.174C37.8487 22.3384 38.3566 22.4976 38.7988 22.645C38.942 23.5251 38.8915 24.5325 38.6433 25.6466ZM40.4292 20.8326C40.4291 20.9296 40.406 21.0252 40.3618 21.1116C40.3176 21.198 40.2535 21.2726 40.1748 21.3294C40.0961 21.3862 40.0051 21.4235 39.9092 21.4382C39.8133 21.453 39.7153 21.4447 39.6232 21.4142C39.4005 21.3371 39.1552 21.2556 38.8937 21.1712C38.9904 20.2431 38.9388 19.3055 38.7408 18.3936C39.1511 18.5217 39.5656 18.6583 39.9782 18.8038C40.2809 19.4369 40.4351 20.1308 40.4292 20.8326ZM37.7348 3.14945C39.4358 5.01963 38.9839 7.32947 38.276 8.97605C36.7373 6.11246 34.3755 3.77589 31.4956 2.26805C32.8629 1.42643 35.3655 0.544247 37.7348 3.14945ZM7.23676 3.14945C9.60718 0.543207 12.1248 1.44307 13.4747 2.26818C10.5952 3.77628 8.23387 6.11281 6.69544 8.97618C5.98811 7.32908 5.53584 5.01924 7.23728 3.14945H7.23676ZM7.38847 27.617C7.36429 27.825 7.34622 28.0339 7.33257 28.2421C5.81521 27.1631 5.46798 24.4267 5.73513 22.7889C6.24993 22.6238 6.79073 22.4351 7.47089 22.2401C7.61572 24.0308 7.5883 25.8312 7.38899 27.6166L7.38847 27.617ZM7.53147 20.7355C7.4676 19.7769 7.59578 18.8152 7.90847 17.9068C8.23724 17.0245 6.95726 16.5079 6.58247 17.3722C6.15004 18.5831 5.99625 19.8759 6.13254 21.1545C5.84979 21.2455 5.58654 21.3324 5.34929 21.4145C5.25719 21.4449 5.15917 21.4531 5.06328 21.4384C4.9674 21.4236 4.87639 21.3863 4.79772 21.3295C4.71905 21.2728 4.65497 21.1981 4.61074 21.1118C4.56651 21.0255 4.54339 20.9299 4.54329 20.8328C4.53458 18.8707 5.60162 18.2848 5.77387 16.5959C6.83584 6.50501 14.8896 1.32568 22.5223 1.54304C30.5031 1.40849 38.2418 6.71925 39.2844 17.065C37.3379 16.4566 35.3561 15.9675 33.35 15.6006C33.2575 15.5846 33.1627 15.5869 33.071 15.6076C32.9794 15.6282 32.8928 15.6668 32.8161 15.721C32.7393 15.7752 32.6741 15.844 32.624 15.9234C32.5739 16.0029 32.54 16.0914 32.5242 16.184C32.4573 16.756 32.8492 17.0115 33.4162 17.0667C33.5562 17.5923 33.7947 18.7339 33.5917 19.8335C32.8372 19.6884 32.0325 19.5528 31.1778 19.4268C31.692 17.6784 31.0237 15.8026 30.9914 15.7141C30.6463 14.8383 29.3509 15.3098 29.6475 16.2026C29.6538 16.2204 30.25 17.9145 29.7344 19.2354C28.9346 19.1401 28.0979 19.0585 27.2243 18.9907C27.3733 18.0187 27.3661 17.0291 27.203 16.0594C27.7722 16.1439 28.4019 16.2256 28.5329 15.4901C28.5437 15.3968 28.5361 15.3023 28.5105 15.212C28.4848 15.1217 28.4416 15.0373 28.3834 14.9636C28.3251 14.89 28.2529 14.8285 28.1709 14.7828C28.0888 14.7371 27.9986 14.708 27.9053 14.6971C18.4716 13.5996 11.9035 15.1365 9.51761 15.8482C8.51167 16.2341 9.13502 17.6109 10.1185 17.1623C9.90222 18.1309 9.87349 19.1319 10.0338 20.1113C9.10577 20.3163 8.27026 20.5285 7.53212 20.7351L7.53147 20.7355ZM25.7872 18.8987C24.9181 18.8531 24.0173 18.8253 23.0849 18.8154V15.7712C23.931 15.7984 24.8098 15.8481 25.7213 15.9204C25.8309 16.4383 26.0271 17.6591 25.7879 18.8983L25.7872 18.8987ZM21.6558 15.7448V18.8171C20.8248 18.8279 20.0193 18.8539 19.2394 18.8951C18.9768 17.5301 19.2417 16.1886 19.3359 15.7845C20.0735 15.7546 20.8487 15.7407 21.6558 15.7448ZM17.803 18.9863C16.9297 19.0521 16.0923 19.1329 15.2908 19.2288C14.7798 17.9087 15.374 16.2203 15.3805 16.2025C15.3911 16.1725 15.3998 16.1418 15.4065 16.1107C16.1633 16.0149 16.9812 15.9317 17.8583 15.8688C17.6648 16.8975 17.6461 17.9514 17.8028 18.9863H17.803ZM13.8477 19.419C12.9946 19.5425 12.1892 19.679 11.4343 19.8233C11.1661 18.3201 11.6912 16.801 11.703 16.7564C12.3222 16.6154 13.0427 16.4704 13.8574 16.3361C13.6883 17.0472 13.509 18.2599 13.8474 19.419H13.8477ZM9.30584 32.4359C8.78605 30.9428 8.61628 29.3502 8.80963 27.7811C9.02961 25.8131 9.05139 23.828 8.87463 21.8557C15.4859 19.8092 29.1752 19.7693 35.8711 21.7989C35.6888 23.7898 35.7091 25.7941 35.9315 27.781C36.1251 29.3501 35.9555 30.9427 35.4359 32.4359C31.2769 43.0908 13.4658 43.0933 9.30584 32.4359Z" fill="white"/>
<path d="M37.3535 63.076C37.5412 63.1013 37.7313 63.0513 37.8822 62.9368C38.0331 62.8223 38.1325 62.6526 38.1586 62.465C38.7519 58.1191 36.636 55.0499 35.3218 53.6073C34.8258 53.0625 34.6729 52.1943 34.601 51.5887C34.1373 47.6777 31.9533 46.2067 31.8606 46.1466C31.7823 46.0938 31.6943 46.057 31.6017 46.0384C31.5091 46.0198 31.4137 46.0197 31.321 46.0382C31.2284 46.0567 31.1403 46.0933 31.062 46.146C30.9836 46.1987 30.9164 46.2664 30.8643 46.3452C30.8122 46.424 30.7763 46.5124 30.7586 46.6052C30.7408 46.6979 30.7417 46.7933 30.761 46.8858C30.7803 46.9782 30.8178 47.0659 30.8712 47.1438C30.9246 47.2217 30.993 47.2883 31.0723 47.3396C31.1427 47.3876 32.8013 48.5504 33.1809 51.7569C33.276 52.5582 33.4917 53.7216 34.2645 54.5702C35.4106 55.8284 37.2564 58.5019 36.7418 62.2715C36.7164 62.4593 36.7665 62.6495 36.8812 62.8003C36.9959 62.9512 37.1657 63.0503 37.3535 63.076Z" fill="white"/>
<path d="M11.7912 51.7565C12.1702 48.5604 13.8192 47.3947 13.8992 47.3398C14.6662 46.806 13.9135 45.649 13.1115 46.1463C13.019 46.2068 10.835 47.6774 10.3711 51.5883C10.2994 52.194 10.1465 53.0621 9.65027 53.607C8.33623 55.05 6.22034 58.1187 6.81353 62.4646C6.96615 63.3947 8.33388 63.2098 8.23053 62.2712C7.71599 58.5012 9.56174 55.828 10.7077 54.5699C11.4805 53.7208 11.6962 52.5575 11.7912 51.7565Z" fill="white"/>
<path d="M18.5346 26.0076C18.7242 26.0076 18.9061 25.9323 19.0402 25.7982C19.1743 25.6641 19.2496 25.4823 19.2496 25.2926V24.5646C19.2258 23.6217 17.8435 23.6216 17.8196 24.5646V25.2926C17.8196 25.4823 17.8949 25.6641 18.029 25.7982C18.1631 25.9323 18.345 26.0076 18.5346 26.0076Z" fill="white"/>
<path d="M26.2065 26.0076C26.3961 26.0076 26.5779 25.9323 26.712 25.7982C26.8461 25.6641 26.9215 25.4823 26.9215 25.2926V24.5646C26.8975 23.6217 25.5152 23.6216 25.4915 24.5646V25.2926C25.4915 25.4823 25.5668 25.6641 25.7009 25.7982C25.835 25.9323 26.0168 26.0076 26.2065 26.0076Z" fill="white"/>
<path d="M21.6737 31.8793C22.0864 32.06 22.534 32.1466 22.9843 32.1326C23.4345 32.1187 23.876 32.0046 24.2766 31.7987C24.8164 31.5203 25.3094 31.1594 25.7381 30.7292C25.8059 30.6631 25.8599 30.5842 25.897 30.4971C25.9341 30.41 25.9536 30.3164 25.9542 30.2217C25.9548 30.127 25.9367 30.0332 25.9007 29.9456C25.8648 29.858 25.8118 29.7784 25.7448 29.7114C25.6779 29.6444 25.5983 29.5915 25.5107 29.5555C25.4231 29.5195 25.3292 29.5014 25.2346 29.502C25.1399 29.5026 25.0463 29.522 24.9591 29.5591C24.872 29.5962 24.7931 29.6502 24.7271 29.718C24.0754 30.3519 23.1708 30.992 22.243 30.5675C21.2152 30.1214 20.7671 29.7206 20.7489 29.7041C20.0607 29.0726 19.0973 30.078 19.7618 30.7387C19.822 30.7959 20.3869 31.3203 21.6737 31.8793Z" fill="white"/>
<path d="M20.6525 12.9362C21.4352 12.938 21.9936 12.7102 22.3707 12.4032C22.7477 12.7102 23.3061 12.938 24.0888 12.9362C25.2627 12.9345 26.1047 11.8891 26.1969 11.7699C26.3133 11.6202 26.3654 11.4304 26.3418 11.2422C26.3182 11.054 26.2208 10.883 26.071 10.7666C25.9213 10.6502 25.7315 10.5981 25.5433 10.6217C25.3552 10.6453 25.1841 10.7427 25.0677 10.8924C24.942 11.0514 24.4921 11.5056 24.0867 11.5062C23.2993 11.5094 23.1194 11.162 23.0857 11.0171V9.93355C24.6106 9.64066 26.2447 7.77555 25.2589 6.22855C25.0843 5.95318 24.8428 5.72651 24.5569 5.56967C24.2711 5.41282 23.9501 5.3309 23.6241 5.33155H21.1151C20.7961 5.33134 20.4821 5.41005 20.201 5.56066C19.9198 5.71128 19.6803 5.92911 19.5038 6.19475C18.4803 7.74084 20.0949 9.64378 21.6557 9.93446V11.0284C21.6391 11.1145 21.4919 11.5094 20.6547 11.5059C20.2496 11.5059 19.7996 11.0509 19.6762 10.8949C19.5588 10.749 19.3889 10.6549 19.2029 10.6329C19.017 10.611 18.8298 10.6628 18.6817 10.7774C18.5335 10.892 18.4362 11.0601 18.4107 11.2456C18.3852 11.4311 18.4335 11.6192 18.5452 11.7695C18.6367 11.8891 19.4787 12.9345 20.6525 12.9362ZM21.1738 8.15515C20.8714 7.91335 20.4328 7.32848 20.6939 6.98801C20.7397 6.91824 20.8022 6.86102 20.8758 6.82152C20.9493 6.78202 21.0316 6.7615 21.1151 6.76181H23.6241C23.7098 6.76154 23.7942 6.78313 23.8692 6.82452C23.9443 6.86592 24.0075 6.92577 24.0531 6.99841C24.2832 7.27427 23.938 7.77997 23.7122 8.00994C23.3887 8.35547 22.9445 8.56324 22.472 8.59017C21.9994 8.61711 21.5345 8.46115 21.1738 8.15463V8.15515Z" fill="white"/>
</svg>
