<svg width="27" height="28" viewBox="0 0 27 28" fill="none" xmlns="http://www.w3.org/2000/svg">
<path d="M8.23687 22.3086C9.32691 22.3086 10.2106 23.2414 10.2106 24.3919C10.2106 25.5425 9.32691 26.4752 8.23687 26.4752C7.14683 26.4752 6.26318 25.5425 6.26318 24.3919C6.26318 23.2414 7.14683 22.3086 8.23687 22.3086Z" stroke="white" stroke-width="1.5"/>
<path d="M20.0789 22.3086C21.1689 22.3086 22.0526 23.2412 22.0526 24.3919C22.0526 25.5425 21.1689 26.4752 20.0789 26.4752C18.9889 26.4752 18.1052 25.5425 18.1052 24.3919C18.1052 23.2412 18.9889 22.3086 20.0789 22.3086Z" stroke="white" stroke-width="1.5"/>
<path d="M1 1.4751L1.3437 1.60265C3.05632 2.23822 3.91263 2.55601 4.40242 3.31256C4.89221 4.06913 4.89221 5.07406 4.89221 7.08391V10.8639C4.89221 14.9495 4.97542 16.2977 6.11542 17.567C7.25543 18.8361 9.09023 18.8361 12.7599 18.8361H14.1579M19.7374 18.8361C21.7913 18.8361 22.8183 18.8361 23.5442 18.2117C24.2701 17.5873 24.4775 16.5256 24.8921 14.4021L25.5498 11.0344C26.0065 8.61908 26.2348 7.41142 25.6507 6.60991C25.0666 5.80841 23.0708 5.80841 20.8537 5.80841H12.873M4.89221 5.80841H7.57895" stroke="white" stroke-width="1.5" stroke-linecap="round"/>
</svg>
