<svg width="29" height="31" viewBox="0 0 29 31" fill="none" xmlns="http://www.w3.org/2000/svg">
<g filter="url(#filter0_d_306_271)">
<path d="M6.5 22.5H22.5C23.6045 22.5 24.5 21.6045 24.5 20.5V4.5C24.5 3.3955 23.6045 2.5 22.5 2.5H6.5C5.3955 2.5 4.5 3.3955 4.5 4.5V20.5C4.5 21.6045 5.3955 22.5 6.5 22.5Z" stroke="white" stroke-miterlimit="10" stroke-linecap="round" stroke-linejoin="round"/>
<path d="M14.5 4.5C12.2905 4.5 10.5 6.2905 10.5 8.5C10.5 10.7095 12.2905 12.5 14.5 12.5C16.7095 12.5 18.5 10.7095 18.5 8.5C18.5 6.2905 16.7095 4.5 14.5 4.5Z" stroke="white" stroke-miterlimit="10"/>
<path d="M14.5 10.5C15.6046 10.5 16.5 9.60457 16.5 8.5C16.5 7.39543 15.6046 6.5 14.5 6.5C13.3954 6.5 12.5 7.39543 12.5 8.5C12.5 9.60457 13.3954 10.5 14.5 10.5Z" stroke="white" stroke-miterlimit="10"/>
<path d="M16.6236 16.2096C17.4931 15.9711 18.3201 15.5901 19.0721 15.0656C19.5246 14.7496 19.6361 14.1261 19.3201 13.6731C19.0046 13.2206 18.3811 13.1101 17.9276 13.4246C16.9201 14.1286 15.7346 14.5001 14.5001 14.5001C13.2686 14.5001 12.0856 14.1301 11.0786 13.4301C10.6256 13.1146 10.0016 13.2271 9.68712 13.6801C9.37162 14.1336 9.48362 14.7566 9.93712 15.0721C10.6866 15.5931 11.5106 15.9716 12.3766 16.2096L9.79312 18.7931C9.40262 19.1836 9.40262 19.8166 9.79312 20.2071C9.98862 20.4026 10.2441 20.5001 10.5001 20.5001C10.7561 20.5001 11.0116 20.4026 11.2071 20.2071L14.5001 16.9141L17.7931 20.2071C17.9886 20.4026 18.2441 20.5001 18.5001 20.5001C18.7561 20.5001 19.0116 20.4026 19.2071 20.2071C19.5976 19.8166 19.5976 19.1836 19.2071 18.7931L16.6236 16.2096Z" stroke="white" stroke-miterlimit="10"/>
</g>
<defs>
<filter id="filter0_d_306_271" x="-2" y="0" width="33" height="33" filterUnits="userSpaceOnUse" color-interpolation-filters="sRGB">
<feFlood flood-opacity="0" result="BackgroundImageFix"/>
<feColorMatrix in="SourceAlpha" type="matrix" values="0 0 0 0 0 0 0 0 0 0 0 0 0 0 0 0 0 0 127 0" result="hardAlpha"/>
<feOffset dy="4"/>
<feGaussianBlur stdDeviation="2"/>
<feComposite in2="hardAlpha" operator="out"/>
<feColorMatrix type="matrix" values="0 0 0 0 0 0 0 0 0 0 0 0 0 0 0 0 0 0 0.25 0"/>
<feBlend mode="normal" in2="BackgroundImageFix" result="effect1_dropShadow_306_271"/>
<feBlend mode="normal" in="SourceGraphic" in2="effect1_dropShadow_306_271" result="shape"/>
</filter>
</defs>
</svg>
