<svg width="68" height="45" viewBox="0 0 68 45" fill="none" xmlns="http://www.w3.org/2000/svg">
<path d="M57.1125 28.38C55.8975 27.8625 55.11 26.6175 55.11 25.2075V23.955C57.045 22.5075 58.2975 20.2125 58.2975 17.625V16.2525C59.415 16.05 60.2625 15.075 60.2625 13.905C60.2625 13.65 60.21 13.4025 60.135 13.17V11.4375C60.135 6.06 55.7625 1.6875 50.385 1.6875C45.0075 1.6875 40.635 6.06 40.635 11.4375V13.275C40.635 13.3125 40.65 13.35 40.6575 13.3875C40.62 13.5525 40.5975 13.725 40.5975 13.905C40.5975 15.045 41.4075 16.005 42.48 16.2375V17.625C42.48 20.385 43.905 22.815 46.05 24.2325V25.0425C46.05 26.46 45.2175 27.7425 43.98 28.245C38.745 30.3525 35.01 34.7925 33.75 40.1025C32.61 35.3625 29.49 31.29 25.1025 28.98C26.19 28.4175 27.1875 27.69 28.065 26.8125C30.7125 24.165 31.9725 20.3775 31.4325 16.6425L30.135 10.1925C30.1125 10.0875 27.9075 0 17.1225 0C6.3375 0 4.125 10.095 4.1025 10.2L2.7975 16.68C2.265 20.385 3.525 24.1725 6.1725 26.82C7.05 27.6975 8.04 28.425 9.135 28.98C3.5325 31.92 0 37.6875 0 44.1225C0 44.43 0.2475 44.6775 0.555 44.6775C0.8625 44.6775 1.11 44.43 1.11 44.1225C1.11 37.7925 4.7625 32.16 10.47 29.5575C12.3075 31.3875 14.7225 32.3025 17.1375 32.3025C19.545 32.3025 21.945 31.3875 23.79 29.5725C29.475 32.175 33.135 37.8375 33.135 44.1225C33.135 44.43 33.3825 44.6775 33.69 44.6775C33.7125 44.6775 33.735 44.6625 33.765 44.6625C33.7875 44.6625 33.81 44.6775 33.84 44.6775C34.1475 44.6775 34.395 44.43 34.395 44.1225C34.395 37.7925 38.0475 32.16 43.755 29.5575C45.5775 31.3875 47.9925 32.3025 50.4 32.3025C52.8075 32.3025 55.2075 31.3875 57.045 29.5725C62.73 32.175 66.39 37.8375 66.39 44.1225C66.39 44.43 66.6375 44.6775 66.945 44.6775C67.2525 44.6775 67.5 44.43 67.5 44.1225C67.5 37.2525 63.42 31.0725 57.1125 28.38ZM6.9525 26.04C4.5525 23.64 3.405 20.1975 3.885 16.875L5.1825 10.425C5.205 10.335 7.215 1.11 17.115 1.11C26.9925 1.11 28.9725 10.0425 29.0475 10.425L30.3375 16.845C30.825 20.205 29.6775 23.64 27.2775 26.0475C26.2725 27.0525 25.1025 27.825 23.7975 28.3725C22.605 27.84 21.8325 26.61 21.8325 25.2225V23.97C23.76 22.5225 25.02 20.2275 25.02 17.64V12.1275C25.02 11.8425 24.8025 11.6025 24.51 11.58C24.495 11.58 24.435 11.5725 24.42 11.5725C21.6825 11.5725 19.455 9.345 19.455 6.6075C19.455 6.3 19.2075 6.0525 18.9 6.0525H18.8925C18.585 6.0525 18.3375 6.3 18.3375 6.6075C18.3375 9.345 16.11 11.5725 13.3725 11.5725H9.75C9.4425 11.5725 9.195 11.82 9.195 12.1275V17.625C9.195 20.385 10.62 22.815 12.765 24.2325V25.0425C12.765 26.4525 11.9325 27.7425 10.695 28.245C10.605 28.2825 10.515 28.3275 10.425 28.365C9.1275 27.8175 7.95 27.0375 6.9525 26.04ZM13.74 23.5275C13.665 23.445 13.575 23.385 13.4625 23.3625C11.5725 22.155 10.305 20.0325 10.305 17.625V12.675H13.3725C15.825 12.675 17.94 11.2125 18.9 9.12C19.7925 11.07 21.69 12.4725 23.925 12.6525V17.6175C23.925 21.375 20.8725 24.4275 17.115 24.4275C15.885 24.4275 14.73 24.0975 13.74 23.5275ZM11.55 29.0475C12.9525 28.275 13.875 26.73 13.875 25.0425V24.8325C14.865 25.2825 15.96 25.53 17.115 25.53C18.42 25.53 19.65 25.2075 20.7375 24.645V25.2C20.7375 26.775 21.51 28.2 22.74 29.0175C19.575 31.905 14.7225 31.9125 11.55 29.0475ZM58.2975 15.105V12.6825C58.65 12.81 58.9275 13.0725 59.0625 13.4175C59.07 13.4475 59.0775 13.47 59.085 13.5C59.1225 13.6275 59.1525 13.755 59.1525 13.8975C59.16 14.46 58.8 14.9325 58.2975 15.105ZM41.6925 13.8975C41.6925 13.3725 42.015 12.915 42.4725 12.72V15.0825C42.015 14.88 41.6925 14.43 41.6925 13.8975ZM43.575 17.625V12.2475L45.8025 10.02C46.4925 9.33 47.4075 8.955 48.3825 8.955H52.2375C52.3875 8.955 52.5225 8.895 52.6275 8.79L54.6 6.8175C54.8175 6.6 54.8175 6.255 54.6 6.0375C54.3825 5.82 54.0375 5.82 53.82 6.0375L52.0125 7.845H48.3825C47.115 7.845 45.9225 8.34 45.0225 9.2325L42.7425 11.5125C42.375 11.55 42.0375 11.6775 41.7375 11.865V11.4225C41.7375 6.6525 45.615 2.775 50.385 2.775C55.155 2.775 59.0325 6.6525 59.0325 11.4225V11.805C58.755 11.6475 58.44 11.5425 58.11 11.505L55.05 8.445C54.8325 8.2275 54.4875 8.2275 54.27 8.445C54.0525 8.6625 54.0525 9.0075 54.27 9.225L57.195 12.15V17.61C57.195 21.3675 54.1425 24.42 50.385 24.42C49.155 24.42 48 24.09 47.0025 23.5125C46.9275 23.43 46.8375 23.3775 46.725 23.3475C44.835 22.1475 43.575 20.0325 43.575 17.625ZM44.82 29.0475C46.2225 28.275 47.145 26.73 47.145 25.0425V24.8325C48.135 25.2825 49.23 25.5375 50.385 25.5375C51.69 25.5375 52.92 25.215 54.0075 24.6525V25.2075C54.0075 26.7825 54.78 28.2075 56.01 29.025C52.845 31.905 47.9925 31.9125 44.82 29.0475Z" fill="white"/>
<path d="M17.2501 19.3466C16.9318 19.3466 16.6375 19.1332 16.5005 18.8029L15.75 19.2147C16.0242 19.8756 16.6131 20.3027 17.2501 20.3027C17.8865 20.3027 18.4753 19.8758 18.75 19.2151L17.9999 18.8027C17.8624 19.1331 17.5681 19.3466 17.2501 19.3466Z" fill="white"/>
<path d="M50.2501 18.5966C49.9318 18.5966 49.6375 18.3832 49.5005 18.0529L48.75 18.4647C49.0242 19.1256 49.6131 19.5527 50.2501 19.5527C50.8865 19.5527 51.4753 19.1258 51.75 18.4651L50.9999 18.0527C50.8624 18.3831 50.5681 18.5966 50.2501 18.5966Z" fill="white"/>
<path d="M20.625 16.0186C20.8459 16.0186 21.0256 16.2582 21.0256 16.5527H21.75C21.75 15.7257 21.2453 15.0527 20.625 15.0527C20.0047 15.0527 19.5 15.7257 19.5 16.5527H20.2244C20.2244 16.2582 20.4041 16.0186 20.625 16.0186Z" fill="white"/>
<path d="M12.75 16.5527H13.4744C13.4744 16.2582 13.6541 16.0186 13.875 16.0186C14.0959 16.0186 14.2756 16.2582 14.2756 16.5527H15C15 15.7257 14.4953 15.0527 13.875 15.0527C13.2547 15.0527 12.75 15.7257 12.75 16.5527Z" fill="white"/>
<path d="M53.9999 16.5527C54.4141 16.5527 54.75 16.1779 54.75 15.7155V15.1402C54.75 14.6777 54.4143 14.3027 53.9999 14.3027C53.5859 14.3027 53.25 14.6776 53.25 15.1402V15.7155C53.25 16.1779 53.5859 16.5527 53.9999 16.5527Z" fill="white"/>
<path d="M46.4999 16.5527C46.9141 16.5527 47.25 16.1779 47.25 15.7155V15.1402C47.25 14.6777 46.9143 14.3027 46.4999 14.3027C46.0859 14.3027 45.75 14.6776 45.75 15.1402V15.7155C45.75 16.1779 46.0859 16.5527 46.4999 16.5527Z" fill="white"/>
</svg>
