<svg width="45" height="45" viewBox="0 0 45 45" fill="none" xmlns="http://www.w3.org/2000/svg">
<path d="M6.17417 8.92417C6.51349 8.58487 6.98224 8.375 7.5 8.375H37.5C38.0177 8.375 38.4864 8.58487 38.8258 8.92417M6.17417 8.92417C5.83487 9.26349 5.625 9.73224 5.625 10.25V32.75C5.625 33.7856 6.46447 34.625 7.5 34.625H26.25M6.17417 8.92417L9.375 12.1251M38.8258 8.92417C39.1652 9.26349 39.375 9.73224 39.375 10.25V32.75C39.375 33.7856 38.5356 34.625 37.5 34.625H33.75M38.8258 8.92417L25.1516 22.5982C23.6871 24.0628 21.3128 24.0628 19.8482 22.5982L15 17.75" stroke="white" stroke-width="2" stroke-linecap="round" stroke-linejoin="round"/>
</svg>
