<svg width="63" height="56" viewBox="0 0 63 56" fill="none" xmlns="http://www.w3.org/2000/svg">
<path d="M55.3355 33.7269L50.292 32.5834V30.4863C51.4153 29.9936 52.4496 29.2934 53.3435 28.4C54.746 26.9975 55.6788 25.2505 56.0648 23.3497C57.7255 23.1363 59.0132 21.7147 59.0132 19.9969C59.0132 19.0978 58.658 18.2463 58.0306 17.6155V9.86235C58.0306 5.04372 54.1104 1.12366 49.2919 1.12366V1.14956C48.7161 0.449668 47.8443 0.00177734 46.8696 0H46.8547C46.8436 0 46.8324 0 46.8211 0C43.5961 0 40.5376 1.27931 38.2061 3.60445C35.8165 5.98749 34.5005 9.13796 34.5005 12.4757V17.6566C33.8984 18.2832 33.5572 19.12 33.5572 19.997C33.5572 20.6022 33.7178 21.1702 33.9973 21.662C33.119 21.4307 32.2049 21.3114 31.2717 21.3166C29.5326 21.3295 27.894 21.7838 26.4578 22.5713V21.3143C26.4578 17.4338 23.9733 14.0437 20.2756 12.8784L19.8939 14.0893C23.0605 15.0871 25.1883 17.9907 25.1883 21.3143V23.3931C23.0211 25.0326 21.508 27.5105 21.1229 30.3399C19.7373 31.2567 18.1294 31.7408 16.4543 31.7408C14.1894 31.7408 12.0594 30.8586 10.4566 29.2571C8.85473 27.6541 7.97254 25.5239 7.97254 23.2591V21.639C7.97254 18.8633 9.58687 16.3167 12.0917 15.129L12.1626 15.0964C15.1553 13.718 17.089 10.6972 17.089 7.40048V6.31439H15.8195V7.40048C15.8195 10.1761 14.2077 12.7215 11.7056 13.9086L11.6303 13.9433C8.63714 15.3231 6.703 18.3438 6.703 21.639V31.5287C6.703 32.8791 6.9046 34.2118 7.30057 35.4999C5.33039 36.2379 3.70513 37.6756 2.73292 39.5455C1.7955 38.3981 1.26953 36.95 1.26953 35.4541C1.26953 33.448 2.17763 31.5894 3.7615 30.3542C4.68622 29.6315 5.21651 28.5491 5.21651 27.3849V14.3824C5.21651 11.3706 6.38943 8.53899 8.5192 6.40923C10.6264 4.30333 13.4263 3.13079 16.4036 3.10769C19.3864 3.08407 22.2093 4.24785 24.3627 6.38447C26.5606 8.56502 27.771 11.456 27.771 14.5246V20.0356H29.0405V14.5246C29.0405 11.115 27.6969 7.90397 25.257 5.48323C22.8614 3.10654 19.716 1.81429 16.3936 1.83828C13.0813 1.86418 9.96595 3.16862 7.62151 5.51154C5.25193 7.88112 3.94698 11.0316 3.94698 14.3825V27.3851C3.94698 28.156 3.59455 28.8736 2.98035 29.3536C1.08634 30.8304 0 33.054 0 35.4542C0 37.4653 0.79295 39.4057 2.18804 40.8426C1.90988 41.6932 1.76846 42.5801 1.76846 43.4851V55.617H17.3418V54.3475H3.03761V43.4851C3.03761 42.5938 3.1977 41.7235 3.51381 40.8981C4.38192 38.6231 6.31795 36.9432 8.69274 36.4044L14.1446 35.1688V32.7351C14.892 32.9159 15.6656 33.0102 16.4539 33.0102C17.2682 33.0102 18.0685 32.9092 18.8419 32.7147V35.1688L21.0237 35.6635V38.7071C21.0237 41.3818 23.1997 43.5576 25.8742 43.5576H26.0507V42.2881H25.8742C23.8997 42.2881 22.2932 40.6817 22.2932 38.7071V31.7639C22.2932 26.7399 26.3251 22.6228 31.281 22.586C33.7193 22.5671 36.0039 23.5014 37.7297 25.2144C39.4558 26.9276 40.4063 29.2105 40.4063 31.6422V38.7071C40.4063 40.6817 38.7998 42.2881 36.8253 42.2881V43.5576C39.4998 43.5576 41.6758 41.3818 41.6758 38.7071V34.0399L42.3565 33.8853V39.6674C42.3565 40.0319 42.5882 40.356 42.9334 40.4735C43.0237 40.5044 43.1164 40.5192 43.2081 40.5192C43.467 40.5192 43.7181 40.4008 43.8826 40.1879L46.3243 36.7886L48.753 40.1704L48.7662 40.1882C48.9888 40.4766 49.3702 40.5912 49.7154 40.4737C50.0603 40.356 50.2921 40.032 50.2921 39.6675V33.8849L55.0549 34.9649C58.8092 35.8154 61.4311 39.0983 61.4311 42.9482V54.3475H56.0359V43.7397H54.7663V54.3475H44.5648V55.617H62.7007V42.9482C62.7007 40.8119 61.9665 38.7159 60.6334 37.047C59.3 35.3779 57.4185 34.1988 55.3355 33.7269ZM9.55869 30.1548C9.59398 30.1901 9.63105 30.223 9.66698 30.2578V31.4942C9.66698 32.608 9.80612 33.7132 10.0769 34.7892L8.51818 35.1424C8.15624 33.9704 7.97228 32.7576 7.97228 31.5287V28.0726C8.40062 28.8251 8.93014 29.5257 9.55869 30.1548ZM12.8752 34.1551L11.3151 34.5087C11.0646 33.5246 10.9365 32.5133 10.9365 31.4942V31.2997C11.5445 31.7186 12.1942 32.064 12.8752 32.3327V34.1551ZM20.1115 34.1551V32.3021C20.4223 32.1761 20.7264 32.0323 21.0238 31.874V34.362L20.1115 34.1551ZM56.2413 22.0185C56.2561 21.7942 56.2664 21.569 56.2664 21.3421V21.0775C56.9018 20.8411 57.4244 20.3738 57.7315 19.7763C57.7391 19.8492 57.7435 19.9229 57.7435 19.997C57.7435 20.9497 57.1094 21.7562 56.2413 22.0185ZM56.7609 9.86261V18.5465C56.7609 18.9776 56.5687 19.3639 56.2664 19.6268V18.9187C56.2664 17.8538 55.9501 16.826 55.351 15.9453C55.1273 15.618 54.9532 15.2563 54.8343 14.8715C54.7165 14.488 54.6568 14.0904 54.6568 13.6895V12.3742C54.6568 10.3848 53.0381 8.76624 51.0535 8.76624L49.5926 8.75545C49.8658 7.97545 50.0064 7.15851 50.0064 6.31478V3.14095C50.0064 2.89352 49.9768 2.65307 49.9223 2.42201C53.7465 2.74333 56.7609 5.95651 56.7609 9.86261ZM35.7698 12.4758C35.7698 9.47781 36.9533 6.6465 39.1023 4.50354C41.1943 2.41731 43.9342 1.26966 46.8228 1.26966C46.8327 1.26966 46.8428 1.26966 46.8527 1.26966H46.8681C47.8984 1.27156 48.7367 2.11098 48.7367 3.14095V6.31478C48.7367 7.2932 48.513 8.22872 48.0722 9.09492C47.0174 11.1639 44.9215 12.4492 42.6025 12.4492C40.9184 12.4492 39.3365 13.1046 38.1482 14.2943C36.9584 15.4842 36.303 17.0657 36.303 18.7473V19.5145C35.9708 19.2012 35.7698 18.7582 35.7698 18.2738V12.4758ZM34.8532 19.6812C35.1673 20.2677 35.6731 20.7405 36.3032 21.0087V21.3421C36.3032 21.5682 36.3114 21.7935 36.3265 22.0179C35.4597 21.7547 34.8267 20.9488 34.8267 19.997C34.8266 19.8903 34.8375 19.7853 34.8532 19.6812ZM37.8813 23.6444C37.6773 22.9001 37.5726 22.1268 37.5726 21.3422V18.7473C37.5726 17.4048 38.0957 16.1421 39.0461 15.1917C39.995 14.2419 41.2579 13.7187 42.6025 13.7187C45.2678 13.7187 47.6882 12.3114 49.0122 10.0208L51.0486 10.0358C52.338 10.0358 53.3871 11.0848 53.3871 12.3742V13.6895C53.3871 14.2168 53.4657 14.7401 53.6211 15.2455C53.778 15.7529 54.0073 16.2293 54.302 16.6604C54.7566 17.3286 54.9969 18.1095 54.9969 18.9187V21.3422C54.9969 23.6696 54.0908 25.8574 52.4459 27.5024C50.7992 29.1477 48.6115 30.0537 46.2854 30.0537C45.2262 30.0537 44.1933 29.8662 43.2141 29.4963C42.4771 29.2194 41.7836 28.843 41.1487 28.3778C40.6452 26.8616 39.7918 25.4726 38.624 24.3136C38.3858 24.077 38.1378 23.8544 37.8813 23.6444ZM41.6758 32.7383V31.6423C41.6758 31.1342 41.6386 30.632 41.5671 30.1382C41.8244 30.2763 42.0875 30.4035 42.3563 30.5183V32.5835L41.6758 32.7383ZM43.6261 38.3695V34.3943L45.4536 35.8252L43.6261 38.3695ZM46.3242 34.8945L43.6257 32.7815V30.9646C44.4868 31.2027 45.378 31.3231 46.2854 31.3231C47.2244 31.3231 48.1429 31.1916 49.0225 30.9423V32.7816L46.3242 34.8945ZM49.0225 38.3695L47.1951 35.825L49.0225 34.3941V38.3695Z" fill="white"/>
<path d="M33.9575 36.488C34.2939 36.488 34.5668 36.2153 34.5668 35.8789V35.4603C34.5668 35.1239 34.2941 34.8511 33.9575 34.8511C33.6212 34.8511 33.3484 35.1238 33.3484 35.4603V35.8789C33.3484 36.2153 33.6212 36.488 33.9575 36.488Z" fill="white"/>
<path d="M28.9185 36.488C29.2549 36.488 29.5277 36.2153 29.5277 35.8789V35.4603C29.5277 35.1239 29.255 34.8511 28.9185 34.8511C28.582 34.8511 28.3092 35.1238 28.3092 35.4603V35.8789C28.3092 36.2153 28.5819 36.488 28.9185 36.488Z" fill="white"/>
<path d="M34.2699 38.7991L33.1247 38.2515C32.8096 38.9104 32.1346 39.3363 31.4051 39.3363C30.6751 39.3363 30.0002 38.9106 29.6859 38.252L28.5402 38.7988C29.0641 39.8965 30.1886 40.6058 31.4051 40.6058C32.6207 40.6058 33.7451 39.8966 34.2699 38.7991Z" fill="white"/>
<path d="M23.6633 29.4203L25.9281 31.6851L26.8258 30.7874L24.561 28.5226L23.6633 29.4203Z" fill="white"/>
<path d="M28.191 29.4215L25.9263 27.1567L25.0286 28.0544L27.2934 30.3192L28.191 29.4215Z" fill="white"/>
<path d="M43.4033 51.2636C43.4033 47.9562 41.1506 45.1357 37.925 44.4047L34.4023 43.6063V42.621C37.2921 41.4633 39.4562 38.7081 39.8458 35.3267C39.9359 34.5445 39.604 33.7618 38.9793 33.284C38.3304 32.7874 37.2134 31.7199 37.0249 30.1513C36.9547 29.5662 36.5738 29.0785 36.0315 28.8788L35.9716 28.8568C35.343 28.6253 34.6458 28.8238 34.2365 29.3507C31.9034 32.3547 27.4272 33.2416 24.9666 33.503C24.3321 33.5704 23.7532 33.9059 23.3786 34.4233C23.0044 34.9398 22.8663 35.5933 22.9999 36.2158C23.4183 38.1666 24.4686 39.9391 25.9574 41.2068C26.6631 41.8075 27.4553 42.281 28.2972 42.6177V43.6063L24.7744 44.4047C21.5489 45.1358 19.2963 47.9564 19.2963 51.2636V55.6173H43.4034V51.2636H43.4033ZM24.2412 35.9495C24.1822 35.6743 24.2411 35.3967 24.4069 35.168C24.5732 34.9383 24.8197 34.7952 25.1009 34.7655C27.762 34.4827 32.6177 33.5045 35.2392 30.1295C35.2884 30.0662 35.3632 30.0315 35.4409 30.0315C35.4715 30.0315 35.5025 30.0368 35.5328 30.048L35.5926 30.0701C35.6855 30.1043 35.7514 30.1935 35.7645 30.3026C36.0085 32.3338 37.4002 33.6741 38.208 34.2923C38.4795 34.5001 38.6239 34.8407 38.5846 35.1813C38.1406 39.0351 35.0302 41.9413 31.35 41.9413C27.9211 41.9412 24.998 39.4774 24.2412 35.9495ZM31.3498 43.2107C31.9601 43.2107 32.5563 43.1409 33.1328 43.0124V43.8389C32.6376 44.2681 32.0137 44.5028 31.3498 44.5028C30.686 44.5028 30.0619 44.2679 29.5667 43.8388V43.0123C30.1501 43.1429 30.7478 43.2107 31.3498 43.2107ZM28.7437 44.8068C29.4683 45.4318 30.3804 45.7726 31.3498 45.7725C32.3193 45.7725 33.2313 45.4315 33.9556 44.8068L36.1904 45.3133V48.9704H26.6853V45.2734L28.7437 44.8068ZM25.0551 45.6429L25.4159 45.561V50.2399H37.4601V45.601L37.6444 45.6428C38.078 45.7409 38.4893 45.8861 38.8754 46.0707V54.3477H23.9348V46.0192C24.2886 45.8593 24.6628 45.7317 25.0551 45.6429ZM20.5658 51.2636C20.5658 49.4802 21.3653 47.8696 22.6652 46.8058V54.3478H20.5658V51.2636ZM42.1337 54.3478H40.1449V46.9C41.379 47.9635 42.1337 49.5316 42.1337 51.2636V54.3478Z" fill="white"/>
<path d="M16.4936 27.5092C16.0076 27.5092 15.5583 27.2259 15.3491 26.7874L14.2034 27.3342C14.6221 28.2117 15.5211 28.7788 16.4936 28.7788C17.4653 28.7788 18.3641 28.2119 18.7836 27.3347L17.6383 26.7871C17.4285 27.2257 16.9792 27.5092 16.4936 27.5092Z" fill="white"/>
<path d="M19.9309 40.0371H5.62354V41.3066H19.9309V40.0371Z" fill="white"/>
<path d="M21.0438 21.249C21.4309 21.249 21.7459 21.564 21.7459 21.9511H23.0154C23.0154 20.864 22.1309 19.9795 21.0438 19.9795C19.9567 19.9795 19.0723 20.864 19.0723 21.9511H20.3418C20.3418 21.564 20.6568 21.249 21.0438 21.249Z" fill="white"/>
<path d="M9.97144 21.9511H11.241C11.241 21.564 11.5559 21.249 11.943 21.249C12.3302 21.249 12.6451 21.564 12.6451 21.9511H13.9146C13.9146 20.864 13.0301 19.9795 11.943 19.9795C10.8559 19.9795 9.97144 20.864 9.97144 21.9511Z" fill="white"/>
<path d="M46.3253 26.937C47.3154 26.937 48.2314 26.3595 48.6589 25.4656L47.5136 24.918C47.2958 25.3733 46.8293 25.6676 46.3255 25.6676C45.821 25.6676 45.3548 25.3736 45.1377 24.9185L43.9919 25.4653C44.4183 26.3593 45.3343 26.937 46.3253 26.937Z" fill="white"/>
<path d="M50.8759 19.6157C51.2631 19.6157 51.5779 19.9306 51.5779 20.3178H52.8475C52.8475 19.2307 51.963 18.3462 50.8759 18.3462C49.7888 18.3462 48.9043 19.2307 48.9043 20.3178H50.1738C50.1737 19.9307 50.4887 19.6157 50.8759 19.6157Z" fill="white"/>
<path d="M41.7749 19.6157C42.162 19.6157 42.4769 19.9306 42.4769 20.3178H43.7464C43.7464 19.2307 42.8619 18.3462 41.7749 18.3462C40.6877 18.3462 39.8032 19.2307 39.8032 20.3178H41.0728C41.0728 19.9307 41.3877 19.6157 41.7749 19.6157Z" fill="white"/>
<path d="M46.959 39.8848H45.6895V52.9131H46.959V39.8848Z" fill="white"/>
</svg>
