<svg width="40" height="40" viewBox="0 0 40 40" fill="none" xmlns="http://www.w3.org/2000/svg">
<path d="M18.3816 26.8768C18.5869 24.8586 19.0564 23.4056 18.0293 22.9423C17.4858 22.697 16.1862 22.4748 15.6609 22.4618C15.2923 22.4526 14.7274 22.3343 14.4068 22.2439C13.4209 21.9663 12.991 21.5917 12.2818 20.7186C11.4629 19.7109 11.0331 19.1756 10.6396 17.6682C11.5059 18.2098 12.4955 18.7576 14.0256 18.7576C14.5359 18.7576 15.1991 18.5726 15.8105 18.4634C17.4423 18.1704 18.6451 18.2508 19.8929 19.1113C20.0619 19.4009 20.5126 19.4009 20.6821 19.1113C22.1443 17.8861 24.2805 18.3542 24.8921 18.4634C25.5037 18.5726 26.0388 18.7576 26.5491 18.7576C28.0793 18.7576 29.2157 18.2093 30.0819 17.6682C29.755 19.1878 29.0536 19.7109 28.2345 20.7186C27.5255 21.5917 26.7574 21.9663 25.7713 22.2439C25.3608 22.3594 25.1138 22.4526 24.7449 22.4618C23.6434 22.6797 23.4411 22.697 22.8975 22.9423C21.8702 23.4056 21.8497 25.0479 22.1443 26.8768C22.4655 28.8701 23.3625 31.161 24.0694 32.5925C22.932 33.6479 21.307 33.6604 19.778 33.6604C18.5519 33.6604 17.128 33.3945 16.1237 32.7026C16.9827 31.03 17.7658 30.088 18.3816 26.8768Z" fill="white"/>
<path d="M24.0694 32.5925C23.4402 31.288 23.3393 28.4496 23.0592 26.7104C22.9588 26.0888 22.8152 24.6024 23.6434 24.2287C24.0233 24.0574 24.4559 24.0468 24.9138 24.0353C25.3206 24.0252 25.7409 24.0151 26.168 23.8948C27.3331 23.5667 28.4318 22.8231 29.2616 21.8013C30.2293 20.6103 30.9499 18.9713 31.2904 17.1872C31.3564 16.8427 31.4013 16.5354 31.428 16.2477C31.4463 16.05 31.3507 15.86 31.1858 15.7662C31.0213 15.6719 30.8185 15.6916 30.6732 15.8176C30.654 15.834 28.7214 17.4782 26.5491 17.4782C26.1165 17.4782 25.5762 17.3815 25.004 17.2791C23.432 16.9976 21.5153 16.6547 20.2874 18.0425C19.06 16.6547 17.143 16.9972 15.5705 17.2791C14.9984 17.3815 14.4582 17.4782 14.0256 17.4782C11.8534 17.4782 9.92079 15.834 9.90154 15.8176C9.75652 15.6921 9.55371 15.6719 9.38899 15.7662C9.22404 15.86 9.12841 16.05 9.14677 16.2477C9.17352 16.5368 9.21838 16.8442 9.2841 17.1872C9.62487 18.9713 10.3454 20.6103 11.313 21.8013C12.1432 22.8231 13.2419 23.5667 14.4068 23.8948C14.8336 24.0151 15.2542 24.0252 15.6609 24.0353C16.1189 24.0468 16.5514 24.0574 16.9314 24.2287C17.7591 24.6024 17.6157 26.0888 17.5155 26.7104C17.1908 28.726 16.9206 31.1396 16.1237 32.7026M24.0694 32.5925C23.3625 31.161 22.4655 28.8701 22.1443 26.8768C21.8497 25.0479 21.8702 23.4056 22.8975 22.9423C23.4411 22.697 23.6434 22.6797 24.7449 22.4618C25.1138 22.4526 25.3608 22.3594 25.7713 22.2439C26.7574 21.9663 27.5255 21.5917 28.2345 20.7186C29.0536 19.7109 29.755 19.1878 30.0819 17.6682C29.2157 18.2093 28.0793 18.7576 26.5491 18.7576C26.0388 18.7576 25.5037 18.5726 24.8921 18.4634C24.2805 18.3542 22.1443 17.8861 20.6821 19.1113C20.5126 19.4009 20.0619 19.4009 19.8929 19.1113C18.6451 18.2508 17.4423 18.1704 15.8105 18.4634C15.1991 18.5726 14.5359 18.7576 14.0256 18.7576C12.4955 18.7576 11.5059 18.2098 10.6396 17.6682C11.0331 19.1756 11.4629 19.7109 12.2818 20.7186C12.991 21.5917 13.4209 21.9663 14.4068 22.2439C14.7274 22.3343 15.2923 22.4526 15.6609 22.4618C16.1862 22.4748 17.4858 22.697 18.0293 22.9423C19.0564 23.4056 18.5869 24.8586 18.3816 26.8768C17.7658 30.088 16.9827 31.03 16.1237 32.7026M24.0694 32.5925C22.932 33.6479 21.307 33.6604 19.778 33.6604C18.5519 33.6604 17.128 33.3945 16.1237 32.7026" stroke="white" stroke-width="0.56"/>
<circle cx="14.0313" cy="12.314" r="2.0279" fill="white"/>
<path d="M15.4814 12.1538C15.4814 12.4898 15.1811 11.5981 14.6702 11.3427C14.2646 11.1399 13.7168 11.2641 13.7168 11.0613C13.7168 10.7253 14.6413 10.9029 14.6702 10.9157C15.0758 11.1185 15.4814 11.8178 15.4814 12.1538Z" fill="#2B337B"/>
<circle cx="21.5887" cy="9.58621" r="1.01395" fill="white"/>
<circle cx="28.1123" cy="13.829" r="1.21674" transform="rotate(91.9471 28.1123 13.829)" fill="white"/>
<path d="M28.1262 14.641C27.9275 14.6343 28.4618 14.4453 28.6248 14.0983C28.7542 13.8229 28.6937 13.4429 28.8136 13.447C29.0122 13.4537 28.8855 14.0873 28.8773 14.1069C28.7479 14.3823 28.3249 14.6478 28.1262 14.641Z" fill="#2C337A"/>
<path d="M26.7731 6.77312C29.7484 8.29671 32.1232 10.779 33.5136 13.8189C34.9041 16.8587 35.229 20.2786 34.4358 23.5259C33.6427 26.7732 31.7778 29.6583 29.1426 31.7149C26.5074 33.7715 23.2557 34.8796 19.913 34.86C16.5702 34.8404 13.3318 33.6944 10.7208 31.607C8.10983 29.5197 6.27889 26.613 5.52383 23.3566C4.76878 20.1002 5.13371 16.6844 6.55966 13.661C7.98561 10.6376 10.3893 8.18334 13.3823 6.6947L13.6929 7.31912C10.8403 8.7379 8.54945 11.077 7.19042 13.9585C5.83139 16.84 5.48358 20.0955 6.2032 23.1991C6.92283 26.3026 8.66784 29.0729 11.1563 31.0623C13.6447 33.0517 16.7312 34.1439 19.917 34.1626C23.1029 34.1813 26.202 33.1252 28.7135 31.1651C31.2251 29.205 33.0024 26.4554 33.7584 23.3605C34.5143 20.2655 34.2046 17.0061 32.8794 14.1089C31.5543 11.2117 29.2909 8.84595 26.4552 7.39386L26.7731 6.77312Z" fill="white"/>
</svg>
