<svg width="70" height="70" viewBox="0 0 70 70" fill="none" xmlns="http://www.w3.org/2000/svg">
<path d="M32.1649 47.0341C32.5241 43.5022 33.3459 40.9595 31.5484 40.1488C30.5971 39.7195 28.3228 39.3305 27.4037 39.3078C26.7585 39.2919 25.77 39.0848 25.2089 38.9265C23.4836 38.4408 22.7313 37.7853 21.4902 36.2574C20.0572 34.4938 19.305 33.557 18.6164 30.919C20.1323 31.8669 21.8642 32.8256 24.542 32.8256C25.4349 32.8256 26.5955 32.5018 27.6654 32.3107C30.5212 31.798 32.626 31.9386 34.8096 33.4446C35.1055 33.9514 35.8941 33.9514 36.1907 33.4446C38.7495 31.3003 42.488 32.1195 43.5582 32.3107C44.6285 32.5018 45.5651 32.8256 46.458 32.8256C49.1358 32.8256 51.1245 31.866 52.6405 30.919C52.0683 33.5783 50.8409 34.4938 49.4075 36.2574C48.1667 37.7853 46.8225 38.4408 45.0968 38.9265C44.3784 39.1287 43.9462 39.2919 43.3007 39.3078C41.373 39.6891 41.019 39.7195 40.0677 40.1488C38.2699 40.9595 38.2341 43.8335 38.7495 47.0341C39.3117 50.5224 40.8814 54.5316 42.1185 57.0366C40.1281 58.8836 37.2843 58.9054 34.6086 58.9054C32.4629 58.9054 29.971 58.4401 28.2135 57.2294C29.7168 54.3022 31.0872 52.6537 32.1649 47.0341Z" fill="white"/>
<path d="M42.1185 57.0366C41.0174 54.7538 40.8408 49.7865 40.3507 46.7429C40.175 45.6552 39.9236 43.054 41.373 42.3999C42.0379 42.1002 42.7949 42.0817 43.5963 42.0614C44.3081 42.0438 45.0436 42.0261 45.7911 41.8157C47.83 41.2415 49.7528 39.9401 51.2048 38.152C52.8984 36.0677 54.1594 33.1996 54.7553 30.0773C54.8708 29.4745 54.9493 28.9366 54.9961 28.4332C55.0282 28.0872 54.8608 27.7547 54.5722 27.5906C54.2843 27.4256 53.9294 27.4601 53.6752 27.6806C53.6416 27.7092 50.2595 30.5866 46.458 30.5866C45.701 30.5866 44.7554 30.4174 43.7541 30.2381C41.003 29.7456 37.6488 29.1454 35.5 31.5741C33.352 29.1454 29.9974 29.7448 27.2455 30.2381C26.2442 30.4174 25.2989 30.5866 24.542 30.5866C20.7404 30.5866 17.3585 27.7092 17.3248 27.6806C17.071 27.4609 16.7161 27.4256 16.4278 27.5906C16.1391 27.7547 15.9718 28.0872 16.0039 28.4332C16.0507 28.9391 16.1292 29.4771 16.2442 30.0773C16.8406 33.1996 18.1015 36.0677 19.7947 38.152C21.2476 39.9401 23.1704 41.2415 25.2089 41.8157C25.956 42.0261 26.6919 42.0438 27.4037 42.0614C28.2051 42.0817 28.9621 42.1002 29.627 42.3999C31.0755 43.054 30.8245 45.6552 30.6493 46.7429C30.081 50.2702 29.6081 54.4941 28.2135 57.2294M42.1185 57.0366C40.8814 54.5316 39.3117 50.5224 38.7495 47.0341C38.2341 43.8335 38.2699 40.9595 40.0677 40.1488C41.019 39.7195 41.373 39.6891 43.3007 39.3078C43.9462 39.2919 44.3784 39.1287 45.0968 38.9265C46.8225 38.4408 48.1667 37.7853 49.4075 36.2574C50.8409 34.4938 52.0683 33.5783 52.6405 30.919C51.1245 31.866 49.1358 32.8256 46.458 32.8256C45.5651 32.8256 44.6285 32.5018 43.5582 32.3107C42.488 32.1195 38.7495 31.3003 36.1907 33.4446C35.8941 33.9514 35.1055 33.9514 34.8096 33.4446C32.626 31.9386 30.5212 31.798 27.6654 32.3107C26.5955 32.5018 25.4349 32.8256 24.542 32.8256C21.8642 32.8256 20.1323 31.8669 18.6164 30.919C19.305 33.557 20.0572 34.4938 21.4902 36.2574C22.7313 37.7853 23.4836 38.4408 25.2089 38.9265C25.77 39.0848 26.7585 39.2919 27.4037 39.3078C28.3228 39.3305 30.5971 39.7195 31.5484 40.1488C33.3459 40.9595 32.5241 43.5022 32.1649 47.0341C31.0872 52.6537 29.7168 54.3022 28.2135 57.2294M42.1185 57.0366C40.1281 58.8836 37.2843 58.9054 34.6086 58.9054C32.4629 58.9054 29.971 58.4401 28.2135 57.2294" stroke="white" stroke-width="1.5625"/>
<circle cx="24.5488" cy="21.5488" r="3.54882" fill="white"/>
<path d="M27.088 21.2687C27.088 21.8567 26.5625 20.2962 25.6684 19.8492C24.9587 19.4943 24 19.7116 24 19.3567C24 18.7687 25.6179 19.0796 25.6684 19.102C26.3782 19.4568 27.088 20.6807 27.088 21.2687Z" fill="#2B337B"/>
<circle cx="37.7744" cy="16.7744" r="1.77441" fill="white"/>
<circle cx="49.2004" cy="24.2004" r="2.12929" transform="rotate(91.9471 49.2004 24.2004)" fill="white"/>
<path d="M49.2295 25.6217C48.8818 25.6099 49.8168 25.2791 50.1021 24.6719C50.3285 24.19 50.2225 23.5249 50.4323 23.532C50.78 23.5439 50.5583 24.6526 50.5439 24.687C50.3174 25.169 49.5771 25.6335 49.2295 25.6217Z" fill="#2C337A"/>
<path d="M46.8529 11.8529C52.0598 14.5192 56.2156 18.8632 58.6489 24.1829C61.0822 29.5027 61.6508 35.4875 60.2628 41.1703C58.8748 46.8531 55.6113 51.902 50.9996 55.5011C46.3879 59.1001 40.6975 61.0392 34.8477 61.0049C28.998 60.9707 23.3306 58.9651 18.7614 55.3123C14.1922 51.6594 10.9881 46.5727 9.66671 40.874C8.34536 35.1754 8.98399 29.1976 11.4794 23.9067C13.9748 18.6158 18.1813 14.3208 23.419 11.7157L23.9625 12.8084C18.9706 15.2913 14.9615 19.3847 12.5832 24.4273C10.2049 29.4699 9.59628 35.1671 10.8556 40.5984C12.115 46.0296 15.1687 50.8776 19.5235 54.359C23.8783 57.8404 29.2796 59.7519 34.8549 59.7845C40.4301 59.8172 45.8535 57.9691 50.2487 54.5389C54.644 51.1088 57.7543 46.2969 59.0772 40.8808C60.4 35.4646 59.8581 29.7607 57.5391 24.6906C55.22 19.6205 51.2592 15.4804 46.2966 12.9392L46.8529 11.8529Z" fill="white"/>
</svg>
