<svg width="45" height="45" viewBox="0 0 45 45" fill="none" xmlns="http://www.w3.org/2000/svg">
<path d="M10.2656 22.8242C9.20338 20.3434 8.625 17.702 8.625 15.2149C8.625 8.46881 14.5013 3 21.75 3C28.9987 3 34.875 8.46881 34.875 15.2149C34.875 21.9082 30.6859 29.7186 24.1502 32.5117C22.6266 33.1627 20.8734 33.1627 19.3498 32.5117C17.2625 31.6196 15.4144 30.2158 13.8658 28.5" stroke="white" stroke-width="2" stroke-linecap="round"/>
<path d="M25.5 16.125C25.5 18.1961 23.8211 19.875 21.75 19.875C19.6789 19.875 18 18.1961 18 16.125C18 14.0539 19.6789 12.375 21.75 12.375C23.8211 12.375 25.5 14.0539 25.5 16.125Z" stroke="white" stroke-width="2"/>
<path d="M38.5509 28.3125C39.7986 29.4422 40.5 30.7155 40.5 32.0625C40.5 33.7971 39.3369 35.4094 37.3427 36.75M4.94901 28.3125C3.70147 29.4422 3 30.7155 3 32.0625C3 36.7224 11.3947 40.5 21.75 40.5C24.8492 40.5 27.7729 40.1616 30.3484 39.5625" stroke="white" stroke-width="2" stroke-linecap="round"/>
</svg>
