<svg width="42" height="41" viewBox="0 0 42 41" fill="none" xmlns="http://www.w3.org/2000/svg">
<path d="M1.01638 10.4356C0.83553 15.0132 2.04283 22.7873 10.1692 30.5855C12.1298 32.4668 14.0888 33.9617 16 35.1446M4.84453 3.24844C8.3269 -0.0932845 13.8829 0.355718 16.094 4.15753L17.7165 6.94743C19.1807 9.46516 18.593 12.768 16.2867 14.9811C16.2867 14.9811 13.4897 17.6656 18.5612 22.5325C23.6312 27.3977 26.4305 24.7151 26.4305 24.7151C28.7367 22.502 32.1785 21.938 34.8022 23.3431L37.7095 24.9001C41.6715 27.0218 42.1392 32.3534 38.657 35.6952C36.5645 37.7032 34.001 39.2657 31.1672 39.3686C29.1322 39.4427 26.4907 39.2743 23.5 38.4515" stroke="white" stroke-width="2" stroke-linecap="round"/>
</svg>
