<svg width="65" height="65" viewBox="0 0 65 65" fill="none" xmlns="http://www.w3.org/2000/svg">
<path d="M32.4948 64.8433C32.1432 64.8433 31.858 64.5583 31.858 64.2067V62.3388C31.858 61.9872 32.1432 61.7021 32.4948 61.7021C32.8464 61.7021 33.1314 61.9872 33.1314 62.3388V64.2067C33.1314 64.5583 32.8464 64.8433 32.4948 64.8433Z" fill="white"/>
<path d="M32.4948 58.4563C32.1432 58.4563 31.858 58.1713 31.858 57.8197V54.5692C31.858 54.2176 32.1432 53.9326 32.4948 53.9326C32.8464 53.9326 33.1314 54.2176 33.1314 54.5692V57.8197C33.1314 58.1713 32.8464 58.4563 32.4948 58.4563Z" fill="white"/>
<path d="M32.4943 55.206C32.3601 55.206 32.2249 55.1636 32.1098 55.0762L20.9994 46.6432C20.7193 46.4308 20.6645 46.0312 20.8772 45.7512C21.0896 45.4711 21.4892 45.4165 21.7693 45.6292L32.8797 54.0621C33.1598 54.2746 33.2144 54.6741 33.0018 54.9541C32.8767 55.119 32.6866 55.206 32.4943 55.206Z" fill="white"/>
<path d="M32.4948 62.9024C30.9443 62.9024 29.6829 61.641 29.6829 60.0906C29.6829 58.5402 30.9443 57.2788 32.4948 57.2788C34.0452 57.2788 35.3066 58.5402 35.3066 60.0906C35.3066 61.641 34.0452 62.9024 32.4948 62.9024ZM32.4948 58.552C31.6465 58.552 30.9563 59.2423 30.9563 60.0906C30.9563 60.9389 31.6465 61.6291 32.4948 61.6291C33.3431 61.6291 34.0333 60.9389 34.0333 60.0906C34.0333 59.2425 33.3429 58.552 32.4948 58.552Z" fill="white"/>
<path d="M24.8647 58.7527C24.8543 58.7527 24.8439 58.7525 24.8334 58.752C24.6386 58.7424 24.4588 58.6442 24.3457 58.4852L17.5862 48.9813C17.3824 48.6947 17.4494 48.2972 17.736 48.0934C18.0225 47.8898 18.4201 47.9567 18.6239 48.2431L24.915 57.0883L29.1937 52.1737C29.4248 51.9084 29.8267 51.8803 30.092 52.1116C30.3573 52.3423 30.3851 52.7446 30.1542 53.0097L25.3448 58.5339C25.2238 58.6733 25.0484 58.7527 24.8647 58.7527Z" fill="white"/>
<path d="M0.636775 63.3041C0.285184 63.3041 0 63.0191 0 62.6675V59.4435C0 56.3766 1.94771 53.6435 4.84672 52.6427L16.244 48.708C20.4167 47.2674 22.6849 44.3896 23.1787 39.9105L23.361 38.0426C23.3952 37.6925 23.7055 37.437 24.0566 37.4708C24.4066 37.5048 24.6626 37.8164 24.6284 38.1664L24.4451 40.0422C23.8989 44.9987 21.2797 48.3168 16.6595 49.9118L5.26219 53.8465C2.87629 54.6702 1.27339 56.9195 1.27339 59.4435V62.6675C1.27339 63.0191 0.988366 63.3041 0.636775 63.3041Z" fill="white"/>
<path d="M32.5058 55.2061C32.3136 55.2061 32.1236 55.1194 31.9982 54.9542C31.7856 54.6741 31.8404 54.2749 32.1205 54.0622L43.2305 45.6293C43.5107 45.4166 43.9097 45.4709 44.1225 45.7513C44.3352 46.0315 44.2804 46.4307 44.0004 46.6433L32.8904 55.0763C32.7752 55.1637 32.6402 55.2061 32.5058 55.2061Z" fill="white"/>
<path d="M40.1353 58.7531C39.9517 58.7531 39.7763 58.6737 39.6551 58.5345L34.8456 53.0103C34.6147 52.745 34.6425 52.3431 34.9078 52.1121C35.1726 51.8812 35.575 51.9088 35.8059 52.1743L40.0849 57.089L46.3762 48.2435C46.5798 47.9571 46.977 47.8893 47.2641 48.0938C47.5505 48.2976 47.6176 48.6951 47.4138 48.9817L40.6541 58.4856C40.541 58.6446 40.3613 58.7428 40.1665 58.7525C40.1561 58.7529 40.1457 58.7531 40.1353 58.7531Z" fill="white"/>
<path d="M64.3634 63.3041C64.0118 63.3041 63.7267 63.0191 63.7267 62.6675V59.4436C63.7267 56.9195 62.1237 54.6702 59.7379 53.8465L48.3407 49.9118C43.7203 48.3168 41.1013 44.9987 40.5557 40.0499L40.3716 38.1664C40.3375 37.8164 40.5935 37.5049 40.9434 37.4708C41.2916 37.4369 41.6049 37.6924 41.639 38.0426L41.8223 39.9184C42.3152 44.3898 44.5834 47.2674 48.7561 48.708L60.1533 52.6427C63.0523 53.6435 65 56.3766 65 59.4436V62.6675C65 63.0191 64.7149 63.3041 64.3634 63.3041Z" fill="white"/>
<path d="M23.2492 21.8771H18.3488C17.9972 21.8771 17.712 21.592 17.712 21.2403C17.712 20.8887 17.9972 20.6035 18.3488 20.6035H23.2492C23.6007 20.6035 23.8859 20.8887 23.8859 21.2403C23.8858 21.5919 23.6007 21.8771 23.2492 21.8771Z" fill="white"/>
<path d="M27.2013 25.7235C24.671 25.7235 22.6124 23.6651 22.6124 21.1347C22.6124 18.6045 24.671 16.5459 27.2013 16.5459C29.7315 16.5459 31.7901 18.6045 31.7901 21.1347C31.7901 23.6651 29.7315 25.7235 27.2013 25.7235ZM27.2013 17.8195C25.3731 17.8195 23.8858 19.3067 23.8858 21.1349C23.8858 22.9629 25.3731 24.4502 27.2013 24.4502C29.0294 24.4502 30.5167 22.9629 30.5167 21.1349C30.5167 19.3067 29.0294 17.8195 27.2013 17.8195Z" fill="white"/>
<path d="M18.2436 19.1371C18.2229 19.1371 18.2021 19.136 18.1815 19.1339C17.9291 19.1093 17.7155 18.9372 17.6376 18.696C16.2714 14.4684 16.1697 11.0686 17.3268 8.30209C18.308 5.95578 20.174 4.06422 23.1987 2.34901C23.4971 2.17992 23.8757 2.2774 24.0552 2.56953C26.3592 6.3192 24.3866 9.53967 21.4007 14.4146C20.6052 15.7133 19.7038 17.1849 18.7998 18.8098C18.6867 19.0131 18.4729 19.1371 18.2436 19.1371ZM23.2695 3.78172C19.4676 6.06525 16.4528 9.35765 18.4315 16.8824C19.0905 15.7483 19.7309 14.7025 20.3147 13.7495C22.9843 9.39109 24.6585 6.65817 23.2695 3.78172Z" fill="white"/>
<path d="M28.3332 33.1524C26.9283 33.1524 25.7919 32.6444 25.7287 32.6155C25.5635 32.5402 25.4383 32.398 25.3845 32.2243C25.3307 32.051 25.3536 31.8628 25.4473 31.7074C25.4954 31.6274 26.6497 29.743 28.655 29.1217C30.6604 28.5002 32.678 29.402 32.763 29.4408C32.9282 29.516 33.0534 29.6583 33.1072 29.8316C33.1608 30.0051 33.1381 30.1932 33.0443 30.3487C32.9962 30.4286 31.8417 32.3131 29.8364 32.9347C29.3255 33.0929 28.8137 33.1524 28.3332 33.1524ZM27.0395 31.7118C27.6662 31.8678 28.5826 31.9901 29.4596 31.7181C30.3366 31.4464 31.0232 30.8276 31.4523 30.3444C30.8251 30.1886 29.909 30.0662 29.032 30.338C28.155 30.6097 27.4684 31.2287 27.0395 31.7118Z" fill="white"/>
<path d="M32.4985 42.2691C32.4963 42.2692 32.4937 42.2691 32.4909 42.2691C32.4898 42.2691 32.4888 42.2691 32.4877 42.2691C30.4795 42.2664 26.5667 41.482 24.5784 39.3835C20.0578 34.6114 17.9094 30.7604 17.8174 27.2642C17.6995 22.7793 17.6103 18.5489 17.6094 18.5066C17.6021 18.155 17.881 17.864 18.2326 17.8566C18.2372 17.8566 18.2416 17.8564 18.2463 17.8564C18.5916 17.8564 18.8754 18.1328 18.8826 18.4798C18.8834 18.5219 18.9725 22.7494 19.0904 27.2306C19.1724 30.3506 21.2699 34.0394 25.5029 38.5074C27.2825 40.3859 30.9788 40.9946 32.4945 40.9957C34.0103 40.9944 37.7069 40.3857 39.4864 38.5074C43.7191 34.0392 45.8168 30.3506 45.899 27.2306C46.0168 22.7494 46.1058 18.5219 46.1067 18.4798C46.1143 18.1282 46.4063 17.8596 46.7567 17.8566C47.1083 17.864 47.3874 18.155 47.38 18.5066C47.3789 18.5489 47.2899 22.7793 47.1719 27.2642C47.0798 30.7604 44.9316 34.6114 40.4109 39.3835C38.4227 41.482 34.5099 42.2664 32.5016 42.2691C32.5005 42.2691 32.4996 42.2691 32.4985 42.2691Z" fill="white"/>
<path d="M46.6405 21.8771H41.7401C41.3885 21.8771 41.1035 21.592 41.1035 21.2403C41.1035 20.8887 41.3885 20.6035 41.7401 20.6035H46.6405C46.9921 20.6035 47.2771 20.8887 47.2771 21.2403C47.2771 21.5919 46.9922 21.8771 46.6405 21.8771Z" fill="white"/>
<path d="M33.8362 21.8771H31.1533C30.8017 21.8771 30.5165 21.592 30.5165 21.2403C30.5165 20.8887 30.8017 20.6035 31.1533 20.6035H33.8362C34.1878 20.6035 34.4728 20.8887 34.4728 21.2403C34.4728 21.5919 34.1878 21.8771 33.8362 21.8771Z" fill="white"/>
<path d="M37.7881 25.7235C35.2579 25.7235 33.1995 23.6651 33.1995 21.1347C33.1995 18.6045 35.2577 16.5459 37.7881 16.5459C40.3185 16.5459 42.3768 18.6045 42.3768 21.1347C42.3768 23.6651 40.3185 25.7235 37.7881 25.7235ZM37.7881 17.8195C35.9601 17.8195 34.4727 19.3067 34.4727 21.1349C34.4727 22.9629 35.96 24.4502 37.7881 24.4502C39.6161 24.4502 41.1036 22.9629 41.1036 21.1349C41.1036 19.3067 39.6163 17.8195 37.7881 17.8195Z" fill="white"/>
<path d="M33.9942 13.8151H30.9951C30.6435 13.8151 30.3583 13.5299 30.3583 13.1783C30.3583 12.8267 30.6435 12.5415 30.9951 12.5415H33.9942C34.3458 12.5415 34.6308 12.8267 34.6308 13.1783C34.6308 13.5299 34.3458 13.8151 33.9942 13.8151Z" fill="white"/>
<path d="M35.5225 10.4952H29.4671C29.1155 10.4952 28.8303 10.21 28.8303 9.85846C28.8303 9.50686 29.1155 9.22168 29.4671 9.22168H35.5225C35.8741 9.22168 36.1592 9.50686 36.1592 9.85846C36.1592 10.21 35.8741 10.4952 35.5225 10.4952Z" fill="white"/>
<path d="M46.7458 19.137C46.5165 19.137 46.3027 19.0132 46.1896 18.8099C45.2856 17.1851 44.3842 15.7132 43.5887 14.4146C40.6028 9.53981 38.63 6.31934 40.9342 2.56967C41.1137 2.27754 41.4918 2.17975 41.7907 2.34915C44.8158 4.0642 46.6816 5.95592 47.6627 8.30223C48.8199 11.0687 48.718 14.4686 47.3518 18.6962C47.2739 18.9373 47.0605 19.1094 46.8081 19.134C46.7871 19.1359 46.7663 19.137 46.7458 19.137ZM41.7199 3.7817C40.3307 6.65816 42.0049 9.39091 44.6746 13.7493C45.2584 14.7023 45.8989 15.7481 46.5578 16.8824C48.5366 9.35747 45.5219 6.06523 41.7199 3.7817Z" fill="white"/>
<path d="M41.2022 3.97365C41.086 3.97365 40.9685 3.94195 40.8629 3.87523C40.4411 3.60897 36.6251 1.27497 32.4948 1.27355C28.3642 1.27497 24.5479 3.60897 24.1263 3.87523C23.8288 4.06262 23.4358 3.97397 23.2479 3.67664C23.0602 3.37931 23.1492 2.98608 23.4465 2.79821C24.1861 2.33132 28.0957 0.00331243 32.4886 0C32.4912 0.000157735 32.4927 0.000157735 32.4948 0H32.5008C36.8937 0.00347017 40.8031 2.33132 41.5428 2.79821C41.8401 2.98592 41.9289 3.37915 41.7412 3.67664C41.6201 3.8686 41.4134 3.97365 41.2022 3.97365Z" fill="white"/>
<path d="M36.6562 33.1522C36.1759 33.1522 35.6642 33.0927 35.153 32.9344C33.1475 32.3127 31.9932 30.4283 31.945 30.3483C31.8513 30.1928 31.8284 30.0048 31.8822 29.8313C31.9358 29.6578 32.0611 29.5156 32.2264 29.4404C32.3112 29.4016 34.3287 28.4995 36.3341 29.1213C38.3395 29.7426 39.4938 31.6271 39.542 31.707C39.6357 31.8626 39.6585 32.0506 39.6049 32.2239C39.5509 32.3975 39.426 32.5396 39.2607 32.6151C39.1973 32.6442 38.061 33.1522 36.6562 33.1522ZM33.5372 30.3442C33.966 30.8274 34.6527 31.4462 35.53 31.7179C36.4136 31.9921 37.3275 31.8701 37.9518 31.7137C37.5231 31.2304 36.8359 30.61 35.9574 30.3378C35.0803 30.066 34.1641 30.1882 33.5372 30.3442Z" fill="white"/>
</svg>
