<svg width="31" height="32" viewBox="0 0 31 32" fill="none" xmlns="http://www.w3.org/2000/svg">
<g filter="url(#filter0_d_306_262)">
<path d="M15.5 1C9.15464 1 4 6.15465 4 12.5C4 18.8454 9.15464 24 15.5 24C21.8454 24 27 18.8454 27 12.5C27 6.15465 21.8454 1 15.5 1ZM15.5 2C21.3049 2 26 6.69509 26 12.5C26 18.3049 21.3049 23 15.5 23C9.69509 23 5 18.3049 5 12.5C5 6.69509 9.69509 2 15.5 2ZM20.0439 7.01758C19.7019 7.01758 19.3177 7.09679 18.8682 7.25879C18.1702 7.51029 9.96037 10.9961 9.02637 11.3926C8.49237 11.6196 7.49805 12.0418 7.49805 13.0488C7.49805 13.7163 7.88918 14.1938 8.65918 14.4688C9.07318 14.6163 10.0565 14.9143 10.627 15.0713C10.869 15.1378 11.1261 15.1719 11.3906 15.1719C11.9081 15.1719 12.4289 15.0429 12.8369 14.8154C12.8334 14.8994 12.8357 14.9843 12.8457 15.0693C12.9072 15.5943 13.2309 16.0881 13.7109 16.3906C14.0249 16.5886 16.5897 18.3071 16.9727 18.5801C17.5107 18.9646 18.1054 19.168 18.6914 19.168C19.8114 19.168 20.1872 18.0116 20.3682 17.4561C20.6307 16.6496 21.6136 10.0911 21.7246 8.93457C21.8001 8.14207 21.4698 7.48948 20.8408 7.18848C20.6053 7.07498 20.3364 7.01758 20.0439 7.01758ZM20.0439 8.01758C20.1814 8.01758 20.3042 8.04032 20.4082 8.09082C20.6447 8.20432 20.765 8.45734 20.7285 8.83984C20.6075 10.1013 19.627 16.5045 19.418 17.1465C19.239 17.6955 19.0504 18.168 18.6914 18.168C18.3324 18.168 17.9402 18.0421 17.5537 17.7656C17.1672 17.4896 14.6006 15.7684 14.2441 15.5439C13.9316 15.3469 13.6009 14.8559 14.0664 14.3809C14.4499 13.9899 17.3589 11.1665 17.6074 10.918C17.7924 10.7325 17.7059 10.5088 17.5244 10.5088C17.4619 10.5088 17.3871 10.5351 17.3096 10.5986C17.0056 10.8471 12.7674 13.6831 12.4004 13.9111C12.1574 14.0621 11.7811 14.1709 11.3906 14.1709C11.2241 14.1709 11.0556 14.1509 10.8936 14.1064C10.3296 13.9509 9.3751 13.6614 8.9961 13.5264C8.6316 13.3964 8.49902 13.2718 8.49902 13.0488C8.49902 12.7318 8.94647 12.513 9.41797 12.3125C9.91597 12.101 18.533 8.44171 19.207 8.19921C19.519 8.08622 19.8044 8.01758 20.0439 8.01758Z" fill="white"/>
</g>
<defs>
<filter id="filter0_d_306_262" x="-1" y="0" width="33" height="33" filterUnits="userSpaceOnUse" color-interpolation-filters="sRGB">
<feFlood flood-opacity="0" result="BackgroundImageFix"/>
<feColorMatrix in="SourceAlpha" type="matrix" values="0 0 0 0 0 0 0 0 0 0 0 0 0 0 0 0 0 0 127 0" result="hardAlpha"/>
<feOffset dy="4"/>
<feGaussianBlur stdDeviation="2"/>
<feComposite in2="hardAlpha" operator="out"/>
<feColorMatrix type="matrix" values="0 0 0 0 0 0 0 0 0 0 0 0 0 0 0 0 0 0 0.25 0"/>
<feBlend mode="normal" in2="BackgroundImageFix" result="effect1_dropShadow_306_262"/>
<feBlend mode="normal" in="SourceGraphic" in2="effect1_dropShadow_306_262" result="shape"/>
</filter>
</defs>
</svg>
