<svg width="29" height="31" viewBox="0 0 29 31" fill="none" xmlns="http://www.w3.org/2000/svg">
<g filter="url(#filter0_d_306_258)">
<path d="M6.5 2C5.12524 2 4 3.12524 4 4.5V20.5C4 21.8748 5.12524 23 6.5 23H22.5C23.8748 23 25 21.8748 25 20.5V4.5C25 3.12524 23.8748 2 22.5 2H6.5ZM6.5 3H22.5C23.3342 3 24 3.66576 24 4.5V20.5C24 21.3342 23.3342 22 22.5 22H6.5C5.66576 22 5 21.3342 5 20.5V4.5C5 3.66576 5.66576 3 6.5 3ZM13.6982 7.9961C13.1695 7.99488 12.698 8.02443 12.2764 8.23145C12.276 8.23177 12.2757 8.23209 12.2754 8.23242C12.0698 8.3337 11.9249 8.46235 11.8096 8.61524C11.7519 8.69168 11.6928 8.7603 11.6611 8.93457C11.6453 9.02171 11.6364 9.1629 11.7275 9.31543C11.8187 9.46795 12.0019 9.55468 12.1191 9.57032C12.2006 9.58116 12.3844 9.6594 12.4014 9.68262C12.4017 9.68327 12.402 9.68393 12.4023 9.68458C12.4025 9.68474 12.4736 9.87058 12.4941 10.0361C12.5146 10.2017 12.5137 10.3359 12.5137 10.3359C12.5135 10.3493 12.5138 10.3627 12.5146 10.376C12.5146 10.376 12.5436 10.8098 12.5244 11.2578C12.5168 11.4364 12.4937 11.5953 12.4697 11.7373C12.2917 11.5407 12.0293 11.1847 11.6504 10.5283C11.23 9.79973 10.8955 9.14649 10.8955 9.14649C10.8779 9.08958 10.8158 8.91252 10.5732 8.73438C10.3081 8.53894 10.0518 8.50977 10.0518 8.50977C10.0196 8.50332 9.98689 8.50005 9.95409 8.5L7.98339 8.50098C7.98339 8.50098 7.86523 8.49414 7.72363 8.51367C7.58202 8.5332 7.36879 8.5491 7.16308 8.79297C7.16276 8.79329 7.16243 8.79362 7.16211 8.79395C6.97826 9.01362 6.98938 9.25641 7.01171 9.39355C7.03404 9.5307 7.08398 9.63476 7.08398 9.63476C7.08495 9.63672 7.08592 9.63868 7.08691 9.64062C7.08691 9.64062 8.69885 13.0297 10.5205 15.0254C11.8433 16.4744 13.2011 16.499 14.3213 16.499H15.1572C15.3706 16.499 15.5637 16.4907 15.7773 16.3662C15.991 16.2417 16.1348 15.9387 16.1348 15.7285C16.1348 15.5083 16.1676 15.3351 16.208 15.2461C16.2364 15.1835 16.2588 15.161 16.2939 15.1426C16.3014 15.1473 16.2966 15.1446 16.3174 15.1592C16.4006 15.2177 16.5381 15.3511 16.6875 15.5176C16.9864 15.8505 17.3256 16.307 17.7812 16.6201C18.1076 16.8446 18.416 16.9443 18.6504 16.9805C18.7972 17.0031 18.9113 16.9988 18.9922 16.9922L20.8594 17C20.8704 17 20.8815 16.9997 20.8926 16.999C20.8926 16.999 21.2143 17.0028 21.5488 16.8027C21.7161 16.7027 21.9134 16.5131 21.9775 16.2363C22.0417 15.9596 21.9611 15.6729 21.8037 15.4111C21.8037 15.4108 21.8037 15.4105 21.8037 15.4102C21.831 15.4555 21.779 15.3624 21.7256 15.2754C21.6722 15.1884 21.5947 15.0712 21.4834 14.9258C21.2608 14.635 20.9043 14.228 20.3281 13.6914C20.3278 13.6914 20.3275 13.6914 20.3271 13.6914C20.0345 13.4191 19.8369 13.2263 19.7559 13.1192C19.6749 13.012 19.7014 13.0683 19.707 13.041C19.7182 12.9865 20.0695 12.4798 20.7842 11.5254C21.2186 10.9445 21.5235 10.5083 21.7246 10.1455C21.9257 9.78274 22.0707 9.46855 21.9697 9.08399C21.9694 9.08334 21.9691 9.08269 21.9687 9.08204C21.9239 8.91323 21.8015 8.75763 21.6758 8.67286C21.5501 8.58809 21.4309 8.55493 21.3242 8.53419C21.1109 8.4927 20.9248 8.50001 20.7519 8.50001C20.3896 8.50001 18.7817 8.5127 18.6494 8.5127C18.493 8.5127 18.2345 8.58383 18.1201 8.65236C17.8326 8.8254 17.75 9.05274 17.75 9.05274C17.7448 9.06235 17.7399 9.07212 17.7353 9.08204C17.7353 9.08204 17.4037 9.8175 16.9766 10.544C16.5439 11.2808 16.2242 11.6323 16.0312 11.7949C16.0259 11.766 16.0269 11.7895 16.0234 11.749C16.0061 11.5433 16.0254 11.2589 16.0254 10.9815C16.0254 10.2342 16.0887 9.71121 16.0547 9.24903C16.0377 9.01795 15.9949 8.77965 15.8428 8.56056C15.6907 8.34146 15.4376 8.19913 15.1875 8.13868C15.0374 8.10248 14.8664 8.00832 14.2471 8.00196C14.2467 8.00196 14.2464 8.00196 14.2461 8.00196C14.0567 8.00006 13.8745 7.9965 13.6982 7.9961ZM14.2363 9.00196C14.7843 9.00759 14.6478 9.03775 14.9522 9.11133C15.0465 9.13414 15.0237 9.13401 15.0215 9.13086C15.0193 9.12771 15.047 9.17927 15.0576 9.32325C15.0788 9.6112 15.0254 10.1837 15.0254 10.9815C15.0254 11.199 14.9991 11.5094 15.0264 11.833C15.0536 12.1566 15.1338 12.5719 15.5205 12.8223C15.7038 12.9411 15.9166 12.9486 16.0986 12.9033C16.2806 12.8581 16.4458 12.7638 16.6191 12.625C16.9659 12.3473 17.3527 11.8787 17.8389 11.0508C18.2933 10.2779 18.6238 9.54199 18.6348 9.51758C18.6369 9.51586 18.6391 9.51468 18.6416 9.5127C18.6479 9.51277 18.6414 9.5127 18.6494 9.5127C18.8361 9.5127 20.4143 9.5 20.752 9.5C20.8308 9.5 20.8595 9.50475 20.9219 9.50684C20.9049 9.56347 20.9238 9.52735 20.8496 9.66113C20.6941 9.94173 20.4075 10.3587 19.9834 10.9258C19.2866 11.8563 18.8547 12.221 18.7275 12.8389C18.664 13.1478 18.7831 13.4903 18.958 13.7217C19.1329 13.9531 19.3537 14.1514 19.6465 14.4238C20.1888 14.9288 20.5069 15.2956 20.6895 15.5342C20.7807 15.6535 20.8383 15.7396 20.874 15.7979C20.9098 15.8561 20.9009 15.85 20.9473 15.9268C20.9778 15.9779 20.9665 15.9467 20.9717 15.9619C20.9117 15.9788 20.8391 15.9992 20.835 16L18.9961 15.9922C18.963 15.9922 18.9299 15.9954 18.8975 16.002C18.8975 16.002 18.9021 16.0074 18.8037 15.9922C18.7053 15.977 18.5489 15.9345 18.3477 15.7959C18.1048 15.629 17.7648 15.2206 17.4316 14.8496C17.2651 14.6641 17.099 14.486 16.8926 14.3408C16.6862 14.1957 16.3774 14.0592 16.044 14.1641C15.6978 14.2727 15.4284 14.5428 15.2969 14.833C15.199 15.049 15.191 15.2746 15.1758 15.499C15.1592 15.5003 15.1783 15.499 15.1572 15.499H14.3213C13.1855 15.499 12.379 15.5776 11.2588 14.3506C9.75205 12.6999 8.37156 9.9535 8.14649 9.50097L9.88087 9.5C9.91135 9.5117 9.97659 9.5362 9.98047 9.53907C9.98112 9.53972 9.98177 9.54037 9.98243 9.54102C9.91903 9.49468 9.98536 9.55958 9.98536 9.55958C9.99148 9.57454 9.99832 9.58921 10.0059 9.60352C10.0059 9.60352 10.3495 10.2749 10.7842 11.0283C11.2106 11.7669 11.5212 12.2283 11.8213 12.5332C11.9713 12.6857 12.1228 12.8079 12.3252 12.877C12.5276 12.946 12.789 12.9207 12.9649 12.8242C13.3241 12.6276 13.3723 12.3376 13.4307 12.084C13.4891 11.8301 13.5124 11.5596 13.5234 11.3008C13.545 10.7985 13.5145 10.3638 13.5127 10.3369C13.5128 10.3275 13.5151 10.1462 13.4863 9.91407C13.4569 9.67635 13.424 9.38569 13.209 9.09278L13.208 9.09181C13.2065 9.08976 13.2046 9.0899 13.2031 9.0879C13.4875 9.04712 13.7308 8.9969 14.2363 9.00196ZM18.6475 9.49219L18.6406 9.50782C18.6396 9.50842 18.6399 9.5071 18.6387 9.50782C18.6408 9.50379 18.6475 9.49219 18.6475 9.49219Z" fill="white"/>
</g>
<defs>
<filter id="filter0_d_306_258" x="-2" y="0" width="33" height="33" filterUnits="userSpaceOnUse" color-interpolation-filters="sRGB">
<feFlood flood-opacity="0" result="BackgroundImageFix"/>
<feColorMatrix in="SourceAlpha" type="matrix" values="0 0 0 0 0 0 0 0 0 0 0 0 0 0 0 0 0 0 127 0" result="hardAlpha"/>
<feOffset dy="4"/>
<feGaussianBlur stdDeviation="2"/>
<feComposite in2="hardAlpha" operator="out"/>
<feColorMatrix type="matrix" values="0 0 0 0 0 0 0 0 0 0 0 0 0 0 0 0 0 0 0.25 0"/>
<feBlend mode="normal" in2="BackgroundImageFix" result="effect1_dropShadow_306_258"/>
<feBlend mode="normal" in="SourceGraphic" in2="effect1_dropShadow_306_258" result="shape"/>
</filter>
</defs>
</svg>
