<svg width="23" height="23" viewBox="0 0 23 23" fill="none" xmlns="http://www.w3.org/2000/svg">
<path d="M12.5091 3.80055e-05C12.3758 0.00134343 12.2484 0.055629 12.1552 0.150915C12.0619 0.246206 12.0104 0.37468 12.0119 0.508004C12.0556 4.20093 12.2714 6.8014 13.7829 8.54237C15.2945 10.2833 17.943 10.9413 22.492 10.991C22.634 10.9927 22.7701 10.9341 22.8666 10.8298C22.963 10.7256 23.0108 10.5853 22.998 10.4438C22.4958 4.91261 18.0903 0.50578 12.5591 0.00199114C12.5425 0.000504965 12.5258 -0.000137725 12.5091 3.80055e-05ZM10.4458 0.00298028C10.4331 0.00314597 10.4203 0.00380361 10.4076 0.00494335C4.89199 0.523438 0.502677 4.92359 0.00203131 10.4438C-0.0107267 10.5853 0.0370317 10.7256 0.133473 10.8299C0.229913 10.9341 0.366009 10.9927 0.508039 10.991C5.04367 10.9388 7.6852 10.2795 9.19159 8.53846C10.698 6.79741 10.9118 4.19926 10.9558 0.510957C10.9573 0.375413 10.9041 0.244981 10.808 0.149313C10.712 0.0536458 10.5814 0.000866494 10.4458 0.00298028ZM13.0602 1.11012C17.6311 1.79343 21.2168 5.38261 21.8928 9.95548C17.8763 9.8489 15.6864 9.2036 14.541 7.88437C13.4148 6.58733 13.1326 4.35326 13.0602 1.11012ZM9.90844 1.11404C9.83593 4.35242 9.55356 6.5847 8.4316 7.88143C7.29052 9.20026 5.10927 9.84544 1.10721 9.9545C1.782 5.3926 5.35283 1.8089 9.90844 1.11404ZM0.508039 12.0089C0.366004 12.0073 0.229908 12.0658 0.133473 12.1701C0.0370317 12.2744 -0.0107217 12.4147 0.00203131 12.5561C0.503194 18.0768 4.89195 22.4771 10.4076 22.995C10.5492 23.0081 10.6897 22.9605 10.7943 22.864C10.8988 22.7675 10.9575 22.6312 10.9558 22.489C10.9119 18.8007 10.698 16.2026 9.1916 14.4615C7.6852 12.7204 5.04368 12.0609 0.508039 12.0089ZM22.492 12.0089C17.943 12.0587 15.2944 12.7166 13.7829 14.4576C12.2715 16.1986 12.0558 18.799 12.0119 22.492C12.0102 22.634 12.0688 22.7701 12.1731 22.8665C12.2774 22.963 12.4176 23.0107 12.5591 22.998C18.0898 22.4942 22.4953 18.0883 22.998 12.5571C23.0111 12.4155 22.9634 12.275 22.867 12.1704C22.7705 12.0659 22.6342 12.0072 22.492 12.0089ZM21.8928 13.0445C21.2164 17.6174 17.6306 21.2065 13.0602 21.8898C13.1328 18.6467 13.4149 16.4126 14.541 15.1156C15.6863 13.7964 17.8763 13.1511 21.8928 13.0445ZM1.10721 13.0455C5.10926 13.1543 7.29052 13.7997 8.4316 15.1185C9.55356 16.4153 9.83592 18.6475 9.90844 21.8859C5.35288 21.1915 1.78236 17.6079 1.10721 13.0455Z" fill="white"/>
</svg>
