<svg xmlns="http://www.w3.org/2000/svg" version="1.1" xmlns:xlink="http://www.w3.org/1999/xlink" xmlns:svgjs="http://svgjs.dev/svgjs" width="99" height="99"><svg width="99" height="99" viewBox="0 0 99 99" fill="none" xmlns="http://www.w3.org/2000/svg">
<path d="M45.5508 69.3759C46.0508 64.7446 47.1945 61.4104 44.6926 60.3474C43.3686 59.7844 40.203 59.2744 38.9236 59.2446C38.0256 59.2237 36.6497 58.9522 35.8687 58.7446C33.4673 58.1077 32.4201 57.2482 30.6926 55.2446C28.698 52.9321 27.651 51.7037 26.6926 48.2446C28.8026 49.4875 31.2132 50.7446 34.9404 50.7446C36.1833 50.7446 37.7988 50.32 39.2879 50.0694C43.2628 49.3972 46.1926 49.5815 49.232 51.5563C49.6437 52.2209 50.7415 52.2209 51.1544 51.5563C54.7159 48.7446 59.9196 49.8188 61.4092 50.0694C62.8989 50.32 64.2025 50.7446 65.4454 50.7446C69.1726 50.7446 71.9408 49.4864 74.0508 48.2446C73.2543 51.7317 71.546 52.9321 69.5508 55.2446C67.8238 57.2482 65.9528 58.1077 63.5508 58.7446C62.5508 59.0098 61.9493 59.2237 61.0508 59.2446C58.3675 59.7446 57.8748 59.7844 56.5508 60.3474C54.0483 61.4104 53.9985 65.1791 54.7159 69.3759C55.4984 73.95 57.6833 79.2071 59.4052 82.4919C56.6348 84.9138 52.6765 84.9424 48.9522 84.9424C45.9656 84.9424 42.4971 84.3323 40.0508 82.7446C42.1432 78.9063 44.0508 76.7446 45.5508 69.3759Z" fill="black"></path>
<path d="M59.4052 82.4919C57.8726 79.4985 57.6268 72.9851 56.9447 68.994C56.7001 67.5677 56.3502 64.1568 58.3675 63.2991C59.2931 62.9061 60.3468 62.8819 61.4622 62.8553C62.4529 62.8322 63.4767 62.8091 64.5171 62.5331C67.3551 61.7802 70.0314 60.0737 72.0526 57.7291C74.4098 54.9959 76.165 51.2351 76.9945 47.1409C77.1551 46.3505 77.2644 45.6452 77.3296 44.985C77.3743 44.5314 77.1413 44.0954 76.7395 43.8801C76.3389 43.6638 75.8449 43.709 75.4911 43.9982C75.4442 44.0357 70.7368 47.8087 65.4454 47.8087C64.3918 47.8087 63.0755 47.5869 61.6818 47.3517C57.8526 46.706 53.1838 45.9189 50.1929 49.1036C47.2031 45.9189 42.5338 46.7049 38.7034 47.3517C37.3098 47.5869 35.994 47.8087 34.9404 47.8087C29.649 47.8087 24.9416 44.0357 24.8947 43.9982C24.5415 43.7101 24.0475 43.6638 23.6463 43.8801C23.2444 44.0954 23.0115 44.5314 23.0562 44.985C23.1214 45.6485 23.2307 46.3538 23.3907 47.1409C24.2208 51.2351 25.9759 54.9959 28.3327 57.7291C30.3549 60.0737 33.0313 61.7802 35.8687 62.5331C36.9085 62.8091 37.9329 62.8322 38.9236 62.8553C40.0391 62.8819 41.0927 62.9061 42.0183 63.2991C44.0345 64.1568 43.6851 67.5677 43.4411 68.994C42.6501 73.6192 41.992 79.1579 40.0508 82.7446M59.4052 82.4919C57.6833 79.2071 55.4984 73.95 54.7159 69.3759C53.9985 65.1791 54.0483 61.4104 56.5508 60.3474C57.8748 59.7844 58.3675 59.7446 61.0508 59.2446C61.9493 59.2237 62.5508 59.0098 63.5508 58.7446C65.9528 58.1077 67.8238 57.2482 69.5508 55.2446C71.546 52.9321 73.2543 51.7317 74.0508 48.2446C71.9408 49.4864 69.1726 50.7446 65.4454 50.7446C64.2025 50.7446 62.8989 50.32 61.4092 50.0694C59.9196 49.8188 54.7159 48.7446 51.1544 51.5563C50.7415 52.2209 49.6437 52.2209 49.232 51.5563C46.1926 49.5815 43.2628 49.3972 39.2879 50.0694C37.7988 50.32 36.1833 50.7446 34.9404 50.7446C31.2132 50.7446 28.8026 49.4875 26.6926 48.2446C27.651 51.7037 28.698 52.9321 30.6926 55.2446C32.4201 57.2482 33.4673 58.1077 35.8687 58.7446C36.6497 58.9522 38.0256 59.2237 38.9236 59.2446C40.203 59.2744 43.3686 59.7844 44.6926 60.3474C47.1945 61.4104 46.0508 64.7446 45.5508 69.3759C44.0508 76.7446 42.1432 78.9063 40.0508 82.7446M59.4052 82.4919C56.6348 84.9138 52.6765 84.9424 48.9522 84.9424C45.9656 84.9424 42.4971 84.3323 40.0508 82.7446" stroke="black" stroke-width="1.5625"></path>
<circle cx="35.0508" cy="34.7446" r="5" fill="black"></circle>
<path d="M38.4015 34.4342C38.4015 35.2627 37.6612 33.064 36.4015 32.4342C35.4015 31.9342 34.0508 32.2404 34.0508 31.7404C34.0508 30.912 36.3303 31.35 36.4015 31.3815C37.4015 31.8814 38.4015 33.6058 38.4015 34.4342Z" fill="white"></path>
<circle cx="53.5508" cy="27.2446" r="2.5" fill="black"></circle>
<circle cx="70.151" cy="39.8448" r="3" transform="rotate(91.9471 70.151 39.8448)" fill="black"></circle>
<path d="M70.1919 41.8473C69.7021 41.8307 71.0195 41.3647 71.4214 40.5093C71.7404 39.8302 71.591 38.8932 71.8867 38.9032C72.3765 38.9199 72.0641 40.482 72.0438 40.5304C71.7248 41.2095 70.6818 41.864 70.1919 41.8473Z" fill="white"></path>
<path d="M66.0119 16.6999C73.348 20.4564 79.2032 26.5768 82.6315 34.0719C86.0598 41.567 86.8609 49.9991 84.9053 58.0057C82.9497 66.0123 78.3517 73.1257 71.8542 78.1965C65.3568 83.2673 57.3394 85.9993 49.0976 85.9511C40.8557 85.9028 32.8709 83.0771 26.4333 77.9305C19.9956 72.784 15.4813 65.6172 13.6196 57.5883C11.7579 49.5593 12.6577 41.1372 16.1735 33.6827C19.6894 26.2282 25.6159 20.1769 32.9955 16.5065L33.7612 18.0461C26.728 21.5442 21.0796 27.3116 17.7287 34.4162C14.3779 41.5208 13.5204 49.5477 15.2947 57.1999C17.069 64.852 21.3715 71.6824 27.507 76.5875C33.6425 81.4925 41.2526 84.1856 49.1076 84.2316C56.9627 84.2776 64.6038 81.6738 70.7963 76.841C76.9889 72.0082 81.3711 65.2286 83.2349 57.5977C85.0987 49.9669 84.3352 41.9305 81.0678 34.7871C77.8004 27.6437 72.22 21.8107 65.2282 18.2304L66.0119 16.6999Z" fill="black"></path>
</svg><style>@media (prefers-color-scheme: light) { :root { filter: none; } }
@media (prefers-color-scheme: dark) { :root { filter: invert(100%); } }
</style></svg>